<?xml version="1.0" standalone="no"?>
<!DOCTYPE svg PUBLIC "-//W3C//DTD SVG 1.1//EN" "http://www.w3.org/Graphics/SVG/1.1/DTD/svg11.dtd" >
<svg xmlns="http://www.w3.org/2000/svg" xmlns:xlink="http://www.w3.org/1999/xlink" version="1.1">
<metadata></metadata>
<defs>
<font id="bpg_nino_medium_capsregular" horiz-adv-x="933" >
<font-face units-per-em="2048" ascent="1475" descent="-573" />
<missing-glyph horiz-adv-x="552" />
<glyph unicode="&#xd;" horiz-adv-x="712" />
<glyph unicode=" "  horiz-adv-x="552" />
<glyph unicode="&#x09;" horiz-adv-x="552" />
<glyph unicode="&#xa0;" horiz-adv-x="552" />
<glyph unicode="!" horiz-adv-x="616" d="M236 400v1216h185l-60 -413v-803h-125zM243 5v161h168v-161h-168z" />
<glyph unicode="&#x22;" horiz-adv-x="684" d="M118 1450v194h141v-191l-41 -241h-54zM459 1453v191h141v-194l-48 -238h-45z" />
<glyph unicode="#" horiz-adv-x="2004" d="M64 261h100q5 -56 48 -95t86 -39q60 0 98 37.5t38 106.5v1177h-223v111h337l657 -1311v1118q0 105 71.5 183.5t164.5 78.5q95 0 171 -72t86 -176h-114q-4 49 -48.5 94t-94.5 45q-54 0 -91.5 -47.5t-37.5 -105.5v-1359h-112l-659 1323v-1059q0 -103 -67.5 -183.5 t-166.5 -80.5q-96 0 -164 75.5t-79 178.5zM1450 750q0 111 69 192t186 81q122 0 194 -82t72 -193q0 -120 -71 -198.5t-195 -78.5q-116 0 -185.5 80.5t-69.5 198.5zM1469 80v109h481v-109h-481zM1550 752q0 -70 43.5 -117.5t111.5 -47.5q79 0 121.5 44.5t42.5 118.5 q0 66 -46 114t-118 48q-66 0 -110.5 -49t-44.5 -111z" />
<glyph unicode="$" horiz-adv-x="1107" d="M95 859q0 61 70.5 139.5t195.5 122.5q-159 130 -159 243q0 115 97 197.5t253 82.5q338 0 405 -282q-30 -7 -65.5 -9t-61.5 -7q-26 115 -90 161t-172 46q-103 0 -178.5 -51t-75.5 -124q0 -71 79 -140t307 -188q194 -107 273.5 -184.5t79.5 -183.5q0 -45 -19.5 -91.5 t-49.5 -76.5h3q-43 -43 -203 -107q102 -70 148 -134.5t46 -138.5q0 -118 -107 -204.5t-278 -86.5q-175 0 -283 78t-142 222l125 18q29 -118 101.5 -170t198.5 -52q115 0 190.5 57t75.5 138q0 67 -81.5 135t-334.5 213q-181 94 -264.5 178.5t-83.5 198.5zM202 875 q0 -28 8 -52t21.5 -46t46.5 -49.5t66 -51.5t99 -62.5t126 -72.5t165 -91l25 -2q91 39 137.5 93t46.5 105q0 50 -29 92t-85.5 81t-119 74.5t-150.5 91t-159 111.5q-105 -57 -151.5 -109.5t-46.5 -111.5z" />
<glyph unicode="%" horiz-adv-x="1832" d="M105 1237q0 171 90 284t251 113q160 0 259.5 -107t99.5 -302q0 -193 -101 -301t-252 -108q-157 0 -252 107t-95 314zM218 1214q0 -163 64 -239.5t175 -76.5q110 0 173 81.5t63 254.5q0 166 -64.5 241t-171.5 75q-54 0 -94.5 -15t-74.5 -51t-52 -104t-18 -166zM405 -55 q79 127 499.5 871.5t459.5 817.5h93q-2 -4 -245 -425.5t-473.5 -828t-236.5 -435.5h-97zM1055 364q0 110 37.5 198.5t117 144t188.5 55.5q155 0 257 -111t102 -301t-102.5 -297.5t-254.5 -107.5q-159 0 -252 104.5t-93 314.5zM1164 343q0 -165 67.5 -242.5t171.5 -77.5 q109 0 175 82.5t66 255.5q0 163 -66 241t-173 78q-115 0 -178 -78t-63 -259z" />
<glyph unicode="&#x26;" horiz-adv-x="1564" d="M118 448q0 141 111.5 260.5t338.5 221.5q-36 51 -85 106.5t-74 84.5t-44 76t-19 106q0 141 121 241t292 100q167 0 275.5 -96t113.5 -227q0 -209 -386 -405q27 -38 220 -244.5t205 -221.5q64 114 118 282l127 -34q-52 -188 -152 -337q10 -12 51 -58.5t55 -61.5t45.5 -48 t58 -56t56.5 -46l-96 -100q-26 14 -64 47.5t-62.5 58t-77.5 81t-66 70.5l-18 -39q-226 -220 -500 -220q-235 0 -389.5 133.5t-154.5 325.5zM257 466q0 -57 27.5 -121.5t76 -122t125 -95.5t164.5 -38q122 0 247 58t221 180l-479 525q-183 -105 -242 -149q-117 -88 -136 -189 q-4 -23 -4 -48zM477 1321q0 -102 228 -348q174 93 243.5 176t69.5 167q0 94 -80.5 168.5t-185.5 74.5q-100 0 -187.5 -70.5t-87.5 -167.5z" />
<glyph unicode="'" horiz-adv-x="366" d="M120 1446v198h141v-200l-43 -235h-54z" />
<glyph unicode="(" horiz-adv-x="817" d="M186 527q0 296 110 561t336 551h77q-205 -303 -287.5 -560t-82.5 -552q0 -537 373 -1109h-80q-94 122 -170 247.5t-140.5 267t-100 294t-35.5 300.5z" />
<glyph unicode=")" horiz-adv-x="817" d="M207 -577q375 559 375 1109q-17 259 -33 357q-39 242 -173 488q-67 123 -165 267h78q228 -300 335.5 -556t107.5 -556q0 -292 -123 -582t-320 -527h-82z" />
<glyph unicode="*" horiz-adv-x="1159" d="M139 1280l47 139l394 -171l-41 396h125l-52 -396l402 171l54 -139l-452 -73l318 -289l-111 -70l-227 336l-219 -341l-104 71l295 295z" />
<glyph unicode="+" horiz-adv-x="1124" d="M130 500v107h409v373h107v-373h409v-107h-409v-373h-107v373h-409z" />
<glyph unicode="," horiz-adv-x="477" d="M145 -277q132 74 132 282h-113v193h193v-198q0 -133 -40.5 -203.5t-150.5 -110.5z" />
<glyph unicode="-" horiz-adv-x="817" d="M50 418v150h759v-150h-759z" />
<glyph unicode="." horiz-adv-x="634" d="M239 5v218h218v-218h-218z" />
<glyph unicode="/" horiz-adv-x="649" d="M32 -11l520 1655h94l-514 -1655h-100z" />
<glyph unicode="0" horiz-adv-x="1099" d="M52 780q0 784 498 784q89 0 162.5 -26t124.5 -69.5t90 -107t62 -130.5t37 -148t19 -152.5t5 -150.5q0 -78 -5 -148.5t-19 -151t-37 -147.5t-62 -130t-90 -106.5t-124.5 -70t-162.5 -26.5t-162.5 26.5t-124.5 70t-89.5 106.5t-61 130t-36.5 147.5t-19 151t-5 148.5z M189 780q0 -59 2.5 -111t11.5 -123t23.5 -128.5t42 -117t64.5 -100t92.5 -66t124.5 -25.5q68 0 123.5 25.5t92.5 66t65 100t43 117.5t24 128t11.5 123t2.5 111q0 675 -362 675q-361 0 -361 -675z" />
<glyph unicode="1" horiz-adv-x="1099" d="M173 1205l439 327h131v-1507h-134v1350l-348 -275z" />
<glyph unicode="2" horiz-adv-x="1099" d="M61 25v116l539 557q132 143 198 250.5t66 213.5q0 65 -22.5 117.5t-57 84t-78.5 53t-83 30t-75 8.5q-54 0 -104 -16.5t-95.5 -49.5t-77 -91.5t-39.5 -135.5l-150 11q7 35 14 62.5t24 70t39 75t59 69t82.5 60t111.5 39t145 15.5q202 0 322.5 -115.5t120.5 -286.5 q0 -116 -70 -242t-257 -318l-446 -459q125 5 178 5h607v-123h-951z" />
<glyph unicode="3" horiz-adv-x="1099" d="M50 380l146 34q14 -133 102.5 -219t224.5 -86q100 0 172 26.5t111 72.5t56.5 99t17.5 116q0 74 -21 134t-63.5 106.5t-113 72.5t-164.5 26q-8 0 -102 -7v122h80q159 0 261 78.5t102 217.5q0 141 -77 211.5t-218 70.5q-68 0 -125 -17t-93 -41t-66 -60.5t-45 -65.5t-30 -66 l-132 50q112 309 489 309q100 0 179 -25.5t125.5 -65t77 -92.5t41.5 -102.5t11 -100.5q0 -55 -11.5 -101t-35 -81t-46.5 -60.5t-59.5 -48t-59 -34.5t-59.5 -28v-2q83 -15 142.5 -52.5t91 -91t45.5 -111.5t14 -125q0 -99 -28.5 -177t-75.5 -127t-111.5 -81t-131.5 -45 t-141 -13q-88 0 -160 20t-123 54t-90.5 83.5t-64.5 103t-42 119.5z" />
<glyph unicode="4" horiz-adv-x="1099" d="M57 330v145l561 1057h207v-1091h218v-111h-218v-305h-129v305h-639zM125 441h571v878q0 21 1 57t1 56z" />
<glyph unicode="5" horiz-adv-x="1099" d="M93 355l134 41q6 -29 17.5 -61t37 -74t59 -74.5t86.5 -55t116 -22.5q54 0 107.5 21t104 64t82 122.5t31.5 183.5q0 98 -33 173.5t-86.5 117t-114 62t-123.5 20.5q-78 0 -166 -29.5t-163 -93.5l20 782h696v-109h-577l-12 -493q129 57 237 57q124 0 229.5 -62.5 t168.5 -175.5t63 -253q0 -226 -137.5 -361t-342.5 -135q-160 0 -272 90t-162 265z" />
<glyph unicode="6" horiz-adv-x="1099" d="M66 491q0 93 24.5 184t78.5 189.5t113.5 185t153.5 209.5l210 273h170l-129 -154q-8 -10 -49.5 -62t-54.5 -68.5t-50 -64t-53 -69.5t-45.5 -62.5t-46 -66t-35 -56.5t-30.5 -56l4 -5q44 23 69.5 34.5t77 24t108.5 12.5q196 0 324 -133.5t128 -325.5q0 -134 -55 -241.5 t-167 -173t-264 -65.5q-119 0 -212.5 39.5t-151.5 107.5t-88 155.5t-30 188.5zM205 518q0 -86 18.5 -157.5t58 -129t107.5 -90t159 -32.5q157 0 252.5 102t95.5 257q0 89 -29 159t-77.5 112t-106 64t-119.5 22q-189 0 -274 -70.5t-85 -236.5z" />
<glyph unicode="7" horiz-adv-x="1099" d="M64 1423v109h932v-109l-655 -1398h-155l673 1398h-795z" />
<glyph unicode="8" horiz-adv-x="1099" d="M84 400q0 52 12 99t28.5 82t48 70t55.5 57t66 49t65 40.5t66 36.5q-46 23 -90.5 53t-94 76.5t-80 110t-30.5 133.5q0 176 108 266.5t312 90.5q93 0 167.5 -21.5t121 -56.5t77 -82.5t43 -96t12.5 -100.5q0 -56 -21.5 -109.5t-53 -92.5t-74 -75t-77 -57t-70.5 -39 q42 -23 66.5 -36.5t65.5 -40.5t66 -49t55.5 -57t47 -70t28.5 -82t12 -99q0 -56 -15.5 -110.5t-51 -107.5t-88 -93t-133 -64.5t-178.5 -24.5t-178.5 24.5t-133 64.5t-88 93t-51 107.5t-15.5 110.5zM223 396q0 -54 20.5 -104t59.5 -91.5t103 -66.5t144 -25t144 25t103 66.5 t59.5 91.5t20.5 104q0 27 -2 49.5t-9.5 44t-13.5 38t-22.5 36t-27 32.5t-36 32.5t-41 31.5t-51.5 34.5t-57 35.5t-67 41q-70 -41 -108 -65t-81.5 -55.5t-64.5 -55t-40.5 -55.5t-26 -66t-6.5 -78zM268 1214q0 -55 22.5 -102t66 -85.5t87.5 -66.5t106 -60q61 30 105.5 58 t88 67t67 87t23.5 102q0 98 -75 169.5t-209 71.5t-208 -71.5t-74 -169.5z" />
<glyph unicode="9" horiz-adv-x="1099" d="M66 1084q0 135 55 242.5t167 172.5t264 65q119 0 212.5 -39t151.5 -106.5t88 -154t30 -186.5q0 -94 -24.5 -186t-78 -190.5t-113 -186t-154.5 -210.5l-214 -280h-170l134 164q283 346 363 502l-4 5q-48 -23 -70.5 -33t-74.5 -21.5t-110 -11.5q-198 0 -325 131t-127 323z M205 1096q0 -86 29 -156t77 -112.5t106 -65.5t119 -23q83 0 169.5 29.5t133.5 61.5q57 91 57 216q0 69 -11.5 129t-37.5 112t-65 89t-97.5 58t-132.5 21q-158 0 -252.5 -101t-94.5 -258z" />
<glyph unicode=":" horiz-adv-x="616" d="M246 5v184h188v-184h-188zM246 766v184h188v-184h-188z" />
<glyph unicode=";" horiz-adv-x="649" d="M236 5v193h194v-193q0 -151 -153 -312l-27 27q86 130 86 285h-100zM236 757v191h194v-191h-194z" />
<glyph unicode="&#x3c;" horiz-adv-x="1124" d="M125 466v125l930 357v-107l-830 -311q4 -4 830 -314v-109z" />
<glyph unicode="=" horiz-adv-x="1124" d="M130 223v104h925v-104h-925zM130 639v107h925v-107h-925z" />
<glyph unicode="&#x3e;" horiz-adv-x="1124" d="M125 102v114l830 314l-830 309v109l930 -352v-130q-666 -258 -930 -364z" />
<glyph unicode="?" horiz-adv-x="917" d="M100 1255q0 146 117.5 252.5t273.5 106.5q115 0 206 -66t138 -166t47 -211q0 -62 -15 -114.5t-53 -108.5t-72.5 -96.5t-102.5 -112.5q-13 -13 -35 -36.5t-29 -31.5t-20 -23.5t-16.5 -22.5t-9.5 -19.5t-7 -23.5t-1 -25v-177h-110v177q0 52 37 114t90 120.5t106 119t90 129 t37 131.5q0 78 -30.5 156t-96.5 135t-153 57q-105 0 -191 -82t-86 -182q0 -73 38.5 -131t108.5 -58q60 0 88 28.5t28 89.5q0 49 -13 100h59q34 -83 34 -145q0 -88 -51 -139.5t-145 -51.5q-117 0 -189 93.5t-72 213.5zM357 111q0 49 32.5 82.5t83.5 33.5q48 0 75 -33t27 -83 q0 -47 -27 -76.5t-75 -29.5q-53 0 -84.5 29t-31.5 77z" />
<glyph unicode="@" horiz-adv-x="1806" d="M95 516q0 217 48.5 404t134 322.5t200.5 232t249.5 144t279.5 47.5q156 0 297.5 -62t248 -172.5t169.5 -274t63 -355.5q0 -145 -45.5 -291t-119 -258t-174 -182.5t-203.5 -70.5q-81 0 -117.5 39.5t-41.5 130.5l-43 12q-61 -87 -131.5 -133.5t-134.5 -46.5 q-93 0 -167 67.5t-113.5 179t-39.5 244.5q0 121 30 233.5t79.5 196.5t110.5 148t125 96.5t121 32.5q16 0 22.5 -2t10 -7t8.5 -12t24 -20t51 -27q67 -31 103.5 -76.5t71.5 -121.5q27 99 41 230h122l-127 -739q-7 -42 -15.5 -86t-12.5 -64.5t-4 -28.5q0 -44 26.5 -74.5 t62.5 -30.5q39 0 99.5 40t124 119t96.5 171h-2q68 162 68 336q0 158 -55.5 297t-149.5 235t-221 151.5t-267 55.5q-127 0 -246 -42.5t-221.5 -128t-179.5 -205t-121 -284t-44 -354.5q0 -426 225 -661t617 -235q217 0 396.5 90.5t271.5 253.5h123q-105 -222 -320 -346.5 t-471 -124.5q-210 0 -383 69.5t-294.5 197.5t-188.5 317.5t-67 422.5zM580 480q0 -160 69 -258.5t160 -98.5q83 0 166.5 78t142.5 215v-2q55 150 55 307q0 62 -12.5 115.5t-32 89t-44.5 64t-49.5 44.5t-47 26.5t-36 14t-19.5 3.5q-91 0 -173.5 -88.5t-130.5 -227t-48 -282.5 z" />
<glyph unicode="A" horiz-adv-x="1118" d="M18 0l459 1464h148l491 -1464h-143l-143 455h-546l-136 -455h-130zM318 577h475l-138 444q-60 186 -89 318l-36 -2q-34 -186 -66 -291z" />
<glyph unicode="B" horiz-adv-x="1118" d="M141 0v1464h441q182 0 286.5 -95.5t104.5 -268.5q0 -99 -52 -183t-148 -142q122 -45 190.5 -138t68.5 -221q0 -416 -443 -416h-448zM261 136h328q165 0 239 67.5t74 212.5q0 139 -79 209.5t-255 70.5h-307v-560zM261 832h289q160 0 231 56t71 190q0 88 -26 140t-97.5 81 t-198.5 29h-269v-496z" />
<glyph unicode="C" horiz-adv-x="1210" d="M95 743q0 176 42.5 318.5t117.5 236t176.5 143.5t220.5 50q170 0 293.5 -104t175.5 -300l-123 -37q-89 312 -343 312q-197 0 -314.5 -156t-117.5 -463q0 -314 111.5 -476t306.5 -162q139 0 239.5 96.5t135.5 280.5l125 -39q-54 -231 -182.5 -349.5t-315.5 -118.5 q-170 0 -282 80v-3q-121 83 -193.5 267t-72.5 424z" />
<glyph unicode="D" horiz-adv-x="1210" d="M141 0v1464h405q138 0 241 -38.5t179.5 -122t115.5 -224.5t39 -338q0 -373 -142 -557t-413 -184h-425zM264 136h282q102 0 178 26t127.5 75t83 125t45 168t13.5 213q0 311 -105 448t-345 137h-279v-1192z" />
<glyph unicode="E" horiz-adv-x="1118" d="M148 0v1464h852v-136h-729v-503h682v-134h-682v-555h759v-136h-882z" />
<glyph unicode="F" horiz-adv-x="1024" d="M157 0v1464h791v-136h-668v-507h579v-137h-579v-684h-123z" />
<glyph unicode="G" horiz-adv-x="1304" d="M107 718q0 183 45.5 330.5t126 243.5t189.5 147.5t237 51.5q389 0 479 -413q-89 -30 -106 -37q-84 321 -376 321q-211 0 -339.5 -161.5t-128.5 -463.5q0 -303 130 -463t345 -160q99 0 207.5 49.5t172.5 118.5v309h-364v134q84 0 241.5 1t240.5 1v-531 q-236 -221 -491 -221q-129 0 -240 50t-193 143t-129 235t-47 315z" />
<glyph unicode="H" horiz-adv-x="1210" d="M143 0v1464h123v-618h684v618h123v-1464h-123v709h-684v-709h-123z" />
<glyph unicode="I" horiz-adv-x="464" d="M182 0v1464h123v-1464h-123z" />
<glyph unicode="J" horiz-adv-x="837" d="M61 389l107 18q10 -162 61 -229t144 -67q114 0 159 84t45 253v1016h123v-1005q0 -135 -22 -230t-66 -150t-102 -79.5t-137 -24.5q-159 0 -233.5 105t-78.5 309z" />
<glyph unicode="K" horiz-adv-x="1118" d="M139 0v1464h122v-782q238 286 641 782h171l-500 -587l530 -877h-169l-448 777l-225 -268v-509h-122z" />
<glyph unicode="L" d="M136 0v1464h123v-1328h607v-136h-730z" />
<glyph unicode="M" horiz-adv-x="1396" d="M139 0v1464h209l352 -1282h32l359 1282h184v-1464h-116v1380l-38 -130q-51 -180 -168 -601.5t-182 -648.5h-116l-362 1273l-38 107v-1380h-116z" />
<glyph unicode="N" horiz-adv-x="1210" d="M141 0v1464h134l648 -1180l34 -104v1284h116v-1464h-134l-648 1182l-34 105v-1287h-116z" />
<glyph unicode="O" horiz-adv-x="1304" d="M98 712q0 183 44 332t121 246t180.5 149t224.5 52q117 0 220.5 -51.5t181.5 -145t123.5 -236.5t45.5 -315q0 -347 -158 -557.5t-413 -210.5q-163 0 -294 97.5t-203.5 266t-72.5 373.5zM225 709q0 -279 126 -441.5t315 -162.5q197 0 321.5 166t124.5 463q0 196 -66 357h2 q-46 117 -153 194t-224 77q-96 0 -175.5 -39.5t-141 -117.5t-95.5 -205t-34 -291z" />
<glyph unicode="P" horiz-adv-x="1118" d="M145 0v1464h446q240 0 347.5 -98t107.5 -313q0 -439 -441 -439h-337v-614h-123zM268 748h341q159 0 234 72.5t75 222.5q0 99 -36 164v-2q-38 73 -93 98h2q-56 25 -186 25h-337v-580z" />
<glyph unicode="Q" horiz-adv-x="1304" d="M89 732q0 181 46 327t125 239.5t182 143t220 49.5q162 0 290.5 -91.5t203 -265t74.5 -400.5q0 -183 -47 -331t-135 -248l2 -30q121 -98 198 -134l-34 -100q-122 58 -252 182q-141 -98 -303 -98t-292 95.5t-204 269t-74 392.5zM216 732q0 -298 125.5 -462.5t320.5 -164.5 q92 0 202 54q-85 72 -175 105l27 107q118 -46 223 -148q161 181 161 511q0 292 -123 460t-313 168q-94 0 -174.5 -39.5t-142 -115.5t-96.5 -198t-35 -277z" />
<glyph unicode="R" horiz-adv-x="1210" d="M143 0v1464h528q211 0 314.5 -91.5t103.5 -297.5q0 -162 -98.5 -265t-285.5 -135q31 -18 56.5 -34.5t47 -34t36.5 -30t30.5 -31.5t24 -28.5t21.5 -32t18 -31t19.5 -36t19.5 -37.5l200 -380h-160l-156 302q-95 183 -144.5 249t-105.5 92h2q-47 25 -139 25h-209v-668h-123z M266 800h373q159 0 241 68.5t82 204.5q0 126 -72.5 196t-212.5 70h-411v-539z" />
<glyph unicode="S" horiz-adv-x="1118" d="M91 443l114 14q21 -161 120 -253.5t262 -92.5q152 0 239.5 77.5t87.5 200.5q0 70 -30 127q-24 43 -53.5 66t-93 47t-210.5 67q-215 63 -301.5 151.5t-86.5 248.5q0 177 113 286t303 109q189 0 306.5 -112t131.5 -297l-116 -14q-17 146 -96 216.5t-222 70.5 q-145 0 -224.5 -66.5t-79.5 -176.5q0 -53 10.5 -87t43.5 -65.5t93.5 -56.5t161.5 -53q107 -32 178 -60.5t130.5 -65t93 -81t51 -103t17.5 -135.5q0 -194 -127 -313t-332 -119q-214 0 -345.5 127t-138.5 343z" />
<glyph unicode="T" horiz-adv-x="1024" d="M55 1328v136h938v-136h-409v-1328h-120v1328h-409z" />
<glyph unicode="U" horiz-adv-x="1210" d="M143 616v848h123v-848q0 -273 76.5 -387.5t257.5 -114.5q74 0 128 14t98 47.5t71 91t41.5 144t14.5 205.5v848h122v-848q0 -157 -22.5 -270t-74 -199t-143 -129t-223.5 -43q-97 0 -170 20t-130.5 66t-94 120.5t-55.5 182t-19 252.5z" />
<glyph unicode="V" horiz-adv-x="1118" d="M27 1464h134q38 -128 126.5 -418.5t151.5 -510t107 -403.5h34q43 172 68 252l330 1080h122q-78 -248 -233.5 -732t-234.5 -732h-139z" />
<glyph unicode="W" horiz-adv-x="1581" d="M39 1464h125l184 -971q28 -156 52 -313h39l57 284l229 1000h166l173 -746q63 -269 98 -536h38q28 173 64 332l189 950h120l-330 -1464h-120q-19 82 -114.5 496.5t-144.5 635.5l-41 182h-39q-17 -100 -34 -182l-259 -1132h-134q-37 171 -101 463.5t-117 537.5t-100 463z " />
<glyph unicode="X" horiz-adv-x="1118" d="M36 0l466 764q-44 76 -188 321.5t-221 378.5h146l220 -375q69 -118 114 -223q71 133 116 207l245 391h128l-421 -689l455 -775h-153l-306 525q-38 68 -71 139l-77 -150l-305 -514h-148z" />
<glyph unicode="Y" horiz-adv-x="1118" d="M34 1464h150l237 -443q77 -142 145 -294q64 145 152 305l232 432h143l-477 -841v-623h-123v623z" />
<glyph unicode="Z" horiz-adv-x="1024" d="M50 0v157l630 961q87 129 154 210h-714v136h844v-150q-129 -196 -364.5 -550t-324.5 -489h2l-100 -139h807v-136h-934z" />
<glyph unicode="[" horiz-adv-x="493" d="M145 -461v2098h330v-125h-204v-1848h204v-125h-330z" />
<glyph unicode="\" horiz-adv-x="493" d="M23 1641h86q263 -1143 393 -1686h-91q-22 97 -167.5 724.5t-220.5 961.5z" />
<glyph unicode="]" horiz-adv-x="493" d="M55 -336h206v1848h-206v125h329v-2098h-329v125z" />
<glyph unicode="^" horiz-adv-x="835" d="M75 775q227 621 311 866h105l316 -866h-120l-248 732l-248 -732h-116z" />
<glyph unicode="_" horiz-adv-x="989" d="M-5 -221h1046v-65h-1046v65z" />
<glyph unicode="`" horiz-adv-x="591" d="M123 1644h161l112 -273h-94q-165 253 -179 273z" />
<glyph unicode="a" d="M73 268q0 85 30 145.5t75.5 92.5t114 55t132 34t143 29t134.5 40v61q0 136 -61 192t-175 56q-110 0 -168 -45t-87 -162l-109 18q32 157 125 230t262 73q102 0 167 -23.5t99.5 -77t46.5 -121t12 -174.5v-250q0 -244 5.5 -308.5t32.5 -132.5h-113q-17 54 -25 116l-37 14 q-149 -155 -316 -155q-132 0 -210 78.5t-78 214.5zM193 275q0 -89 55 -142t150 -53q140 0 222 95.5t82 288.5v102q-56 -27 -219 -66t-199 -59v2q-43 -24 -67 -68t-24 -100z" />
<glyph unicode="b" d="M123 0v1480h111v-591q129 198 268 198q74 0 139 -35t115 -101.5t79 -171t29 -233.5q0 -262 -107 -416.5t-264 -154.5q-147 0 -236 161l-34 -9v-127h-100zM221 539q0 -231 69 -342t196 -111q110 0 187 119t77 327q0 212 -74 326.5t-192 114.5q-108 0 -185.5 -116 t-77.5 -318z" />
<glyph unicode="c" horiz-adv-x="837" d="M80 532q0 268 107.5 411.5t285.5 143.5q131 0 218.5 -79.5t113.5 -234.5l-105 -18q-27 109 -84 163.5t-139 54.5q-126 0 -205 -109.5t-79 -329.5q0 -223 75 -335.5t200 -112.5q98 0 163 67t83 206l109 -18q-28 -177 -124.5 -271.5t-232.5 -94.5q-174 0 -280 142.5 t-106 414.5z" />
<glyph unicode="d" d="M68 530q0 263 102 410t257 147q71 0 142 -54t131 -153v600h114v-1480h-102v127l-37 9q-41 -78 -102 -119.5t-130 -41.5q-159 0 -267 151t-108 404zM184 530q0 -213 77.5 -328.5t190.5 -115.5t187.5 112t74.5 311q0 232 -75.5 348t-197.5 116q-110 0 -184 -111h2 q-75 -105 -75 -332z" />
<glyph unicode="e" d="M73 521q0 271 111.5 418.5t288.5 147.5q173 0 282 -145t109 -410v-27h-678q10 -209 91 -314t205 -105q180 0 255 225l115 -18q-39 -156 -134.5 -237t-237.5 -81q-178 0 -296 139h2q-113 140 -113 407zM196 616h550q-15 181 -86.5 269t-186.5 88q-114 0 -190.5 -94.5 t-86.5 -262.5z" />
<glyph unicode="f" horiz-adv-x="464" d="M34 957v105h136v136q0 163 54 236t176 73q59 0 121 -13l-19 -121q-25 2 -72 2q-79 0 -113.5 -42.5t-34.5 -148.5v-122h175v-105h-175v-957h-112v957h-136z" />
<glyph unicode="g" d="M64 539q0 133 30.5 239.5t82.5 172.5t118 101t141 35q151 0 285 -210v185h100v-932q0 -313 -87.5 -445.5t-299.5 -132.5q-159 0 -247 83t-92 229l110 -21q29 -177 225 -177q216 0 263 209v-2q14 64 14 316q-135 -189 -273 -189q-108 0 -193 72t-131 194.5t-46 272.5z M182 550q0 -217 74 -326.5t194 -109.5q117 0 192.5 105t75.5 322q0 211 -77.5 321.5t-199.5 110.5q-108 0 -183.5 -110.5t-75.5 -312.5z" />
<glyph unicode="h" d="M125 0v1480h109v-589q140 196 293 196q68 0 119 -19.5t91 -64.5t60.5 -127t20.5 -199v-677h-111v677q0 289 -211 289q-117 0 -189.5 -90t-72.5 -294v-582h-109z" />
<glyph unicode="i" horiz-adv-x="372" d="M130 0v1062h111v-1062h-111zM130 1307v173h111v-173h-111z" />
<glyph unicode="j" horiz-adv-x="372" d="M-61 -434l22 118q26 -9 55 -9q41 0 63 15.5t36.5 71.5t14.5 161v1139h111v-1144q0 -87 -9 -150.5t-25.5 -105t-42.5 -66t-56.5 -34.5t-71.5 -10q-47 0 -97 14zM130 1305v175h111v-175h-111z" />
<glyph unicode="k" horiz-adv-x="837" d="M127 0v1480h112v-907l395 489h143l-327 -389q126 -224 368 -673h-138l-307 580l-134 -155v-425h-112z" />
<glyph unicode="l" horiz-adv-x="372" d="M125 0v1480h111v-1480h-111z" />
<glyph unicode="m" horiz-adv-x="1396" d="M120 0v1062h96v-144l36 -9q46 86 113 132t146 46q88 0 152 -58.5t96 -169.5q129 228 287 228q124 0 191.5 -86t67.5 -264v-737h-112v673q0 158 -43 224.5t-136 66.5q-111 0 -177 -85t-66 -261v-618h-112v696q0 143 -46 205.5t-133 62.5q-123 0 -184.5 -93t-61.5 -319 v-552h-114z" />
<glyph unicode="n" d="M125 0v1062h96v-148l34 -9q98 182 272 182q66 0 124 -27t95 -71q40 -50 55 -116t15 -216v-657h-111v650q0 167 -50.5 240.5t-158.5 73.5q-262 0 -262 -382v-582h-109z" />
<glyph unicode="o" d="M66 530q0 267 112 412t293 145q175 0 288.5 -144t113.5 -402q0 -278 -111.5 -422t-290.5 -144q-178 0 -291.5 145t-113.5 410zM182 530q0 -216 82 -330t209 -114q124 0 204 118t80 326q0 215 -82.5 329t-208.5 114q-124 0 -204 -116t-80 -327z" />
<glyph unicode="p" d="M123 -423v1485h100v-200q69 118 137 171.5t145 53.5q155 0 258 -142.5t103 -398.5q0 -264 -108 -417.5t-265 -153.5q-131 0 -259 186v-584h-111zM221 523q0 -212 73.5 -324.5t189.5 -112.5q112 0 190 116.5t78 333.5q0 215 -76.5 330.5t-191.5 115.5q-100 0 -186 -123h2 q-79 -111 -79 -336z" />
<glyph unicode="q" d="M70 541q0 154 40.5 276t124 196t197.5 74q154 0 250 -171l32 7v139h98v-1485h-112v530l-34 9q-36 -66 -96 -103.5t-122 -37.5q-160 0 -269 153.5t-109 412.5zM186 534q0 -216 76.5 -332t196.5 -116q108 0 182.5 112t74.5 313q0 222 -78 345.5t-197 123.5 q-109 0 -182 -112t-73 -334z" />
<glyph unicode="r" horiz-adv-x="559" d="M125 0v1062h98v-157l36 -7q51 113 91 151t89 38q59 0 134 -48q-8 -27 -21.5 -70t-19.5 -64q-49 29 -98 29q-54 0 -94.5 -33t-62 -89.5t-31.5 -120t-10 -134.5v-557h-111z" />
<glyph unicode="s" horiz-adv-x="837" d="M70 291l110 23q19 -113 83 -170.5t167 -57.5q109 0 170.5 54.5t61.5 143.5q0 69 -41.5 104.5t-177.5 77.5q-107 32 -170 59.5t-106 65t-58.5 83.5t-15.5 115q0 134 86.5 216t234.5 82q146 0 223 -68t102 -205l-109 -18q-30 177 -214 177q-105 0 -161.5 -44.5 t-56.5 -116.5q0 -36 4.5 -54.5t27.5 -41t67.5 -41.5t127.5 -48q116 -36 178.5 -62.5t104.5 -63.5t54.5 -80t12.5 -114q0 -152 -93.5 -242t-258.5 -90q-303 0 -353 316z" />
<glyph unicode="t" horiz-adv-x="464" d="M50 957v105h114v282l111 81v-363h152v-105h-152v-666q0 -108 23 -140.5t84 -32.5q30 0 48 5l16 -128q-50 -11 -91 -11q-45 0 -72.5 5.5t-53 23t-38 52.5t-20 92.5t-7.5 144.5v655h-114z" />
<glyph unicode="u" d="M120 398v664h112v-591q0 -211 45.5 -293.5t161.5 -82.5q261 0 261 396v571h112v-1062h-96v152l-32 9q-104 -186 -275 -186q-158 0 -223.5 104.5t-65.5 318.5z" />
<glyph unicode="v" horiz-adv-x="837" d="M43 1062h116l191 -646q30 -98 59 -230l37 -2q34 136 59 218l197 660h112l-330 -1062h-111z" />
<glyph unicode="w" horiz-adv-x="1210" d="M16 1062h118q25 -120 75 -337.5t64 -283.5l54 -245h37l191 866h120l180 -844h38l205 844h107l-273 -1062h-127q-10 49 -141 643l-34 198h-39l-182 -841h-127q-44 179 -133 530.5t-133 531.5z" />
<glyph unicode="x" horiz-adv-x="837" d="M41 0l318 552l-295 510h143l214 -407l234 407h134l-298 -498l323 -564h-139q-68 117 -179 332l-69 127q-41 -77 -129 -237.5t-121 -221.5h-136z" />
<glyph unicode="y" horiz-adv-x="837" d="M48 1062h120l187 -626q37 -128 66 -261h36q27 137 64 257l188 630h112l-337 -1096q-56 -180 -96.5 -266t-81.5 -117t-108 -31q-36 0 -80 16l-11 134q30 -9 63 -9q20 0 33.5 0.5t28 4t23 6t20 13.5t17 18t16 28t16.5 35t17.5 48t19.5 58t23 73z" />
<glyph unicode="z" horiz-adv-x="837" d="M48 0v125l595 834q-115 -9 -216 -9h-345v112h695v-98l-604 -859q163 15 236 15h396v-120h-757z" />
<glyph unicode="{" horiz-adv-x="593" d="M68 484v143q112 8 152.5 107.5t40.5 358.5q0 82 1.5 138.5t6 114t13 94t22.5 71.5t33.5 55t47.5 36t64 22t83 6h32v-130h-7q-45 0 -78.5 -13t-55 -41.5t-34.5 -60.5t-19.5 -84t-8.5 -97.5t-2 -114.5v-141v-86q0 -105 -48 -175.5t-159 -138.5q93 -46 138 -104.5 t61.5 -147.5t16.5 -255q0 -83 1 -138.5t5.5 -104.5t9 -77t16.5 -51.5t23 -34t34 -17.5t43.5 -8t56.5 -1h7v-134h-32q-58 0 -94 6t-69.5 26t-51.5 55t-32 96.5t-19 147t-5 210.5q0 143 -9.5 229.5t-35.5 135.5t-58 69t-90 34z" />
<glyph unicode="|" horiz-adv-x="157" d="M32 -616v2257h95v-2257h-95z" />
<glyph unicode="}" horiz-adv-x="593" d="M55 -391h6q43 0 68.5 4t51.5 18t38.5 42t20.5 76.5t8 120.5q0 105 1.5 176.5t6 137.5t10.5 108t19.5 81t28 61.5t39.5 45.5t51.5 38.5t66.5 33.5q-75 45 -116.5 83t-67 98.5t-32.5 133.5t-7 201v23q0 285 -25.5 347t-161.5 62h-6v130h31q71 0 120 -17.5t76.5 -52 t41 -70.5t22.5 -87q3 -69 7 -189q13 -361 44 -467t158 -120v-143q-74 -8 -115 -50t-61 -140.5t-20 -277.5q-5 -243 -18 -322q-22 -136 -99 -184q-56 -35 -156 -35h-31v134z" />
<glyph unicode="~" horiz-adv-x="1040" d="M89 680v166q45 122 236 122q36 0 111 -20q18 -6 93.5 -40.5t149 -63t108.5 -28.5q58 0 108 29t110 85v-171q-110 -113 -239 -113q-66 0 -100 11q-15 4 -87 41.5t-150 69.5t-122 32q-98 0 -218 -120z" />
<glyph unicode="&#xa4;" horiz-adv-x="1075" d="M95 307l139 123q-75 127 -75 227q0 114 77 225l-141 121q32 19 46 45l9 7q1 0 20 23l137 -130q132 80 250 80q121 0 250 -80q30 34 136 130l30 -32q10 -6 24 -22t21 -21l-131 -121q72 -117 72 -225q0 -116 -77 -227q17 -12 65.5 -59.5t70.5 -63.5l-75 -68q-3 -7 -6 -7 q-1 0 -5 4l11 3l-136 125q-137 -80 -250 -80q-102 0 -250 80l-68 -66q-15 -15 -62 -32l-22 -9l11 -9v-5l4 -4q-18 3 -18 13q1 3 3 5l-37 34q-7 9 -23 16zM257 657q0 -109 88.5 -188.5t211.5 -79.5q121 0 210.5 79.5t89.5 188.5q0 111 -88 188.5t-212 77.5t-212 -77.5 t-88 -188.5zM923 223l2 4q0 -4 2 -4h-4zM925 227v3l7 -3h-7z" />
<glyph unicode="&#xa6;" horiz-adv-x="499" d="M223 336h84v-934h-84v934zM223 691v939h84v-939h-84z" />
<glyph unicode="&#xa7;" horiz-adv-x="1230" d="M109 764q0 100 64.5 170.5t228.5 122.5q-99 81 -138 146t-39 131q0 125 108 217.5t281 92.5q53 0 96.5 -7t76 -16t63.5 -30.5t51.5 -39t47.5 -53t44 -60.5t48 -74q15 -24 23 -36q-25 -12 -64 -12h-25q-26 0 -54 -7q-29 131 -97 181.5t-187 50.5q-122 0 -201 -56.5 t-86 -140.5q0 -21 3 -38t13.5 -34.5t20.5 -31t33.5 -32.5t42 -33t57.5 -38.5t69 -43t86 -53t100 -62.5q396 -177 396 -405q0 -55 -8 -87.5t-38.5 -69.5t-90 -70.5t-161.5 -74.5q216 -159 216 -303q0 -139 -117 -229.5t-313 -90.5q-195 0 -314 85t-159 244l137 18 q36 -129 117.5 -189.5t218.5 -60.5q130 0 213 63t83 156q0 78 -89.5 150.5t-369.5 235.5q-170 89 -244 150v-2q-59 51 -101 125t-42 141zM223 789q0 -92 74 -154.5t344 -221.5q36 -21 56.5 -33t54.5 -32.5t64 -38.5l32 -2q98 51 150 111t52 116q0 41 -22 78.5t-58 68.5 t-95 70t-119.5 75t-147 92.5t-162.5 113.5q-123 -69 -173 -123t-50 -120z" />
<glyph unicode="&#xa9;" horiz-adv-x="1812" d="M7 773q0 159 58 300t154.5 243t219.5 176.5t256 111.5t262 37q190 0 364 -69.5t300.5 -186.5t201.5 -277.5t75 -334.5q0 -130 -39 -249.5t-107 -213t-159.5 -170t-196.5 -127t-217 -77.5t-222 -27q-190 0 -365.5 70.5t-303.5 187t-204.5 276t-76.5 330.5zM84 773 q0 -147 65.5 -287.5t178.5 -250t278 -176t351 -66.5q159 0 298.5 46.5t240 124t175 179t113.5 211t44 219.5q0 134 -48.5 256.5t-133 215.5t-195 162.5t-237.5 106.5t-257 39q-157 0 -296.5 -45t-242.5 -121.5t-178.5 -176t-114.5 -211.5t-41 -226zM482 771v9 q0 219 131.5 344.5t343.5 125.5h9q138 0 239 -60.5t159 -168.5l-32 -5q-7 -7 -45 -7q-48 90 -126 131.5t-199 41.5q-168 0 -278.5 -110.5t-110.5 -303.5q0 -192 104 -297t269 -105q125 0 217.5 58t139.5 158l79 -14q-32 -90 -99.5 -154t-150.5 -93.5t-175 -29.5 q-214 0 -344.5 129.5t-130.5 350.5z" />
<glyph unicode="&#xab;" horiz-adv-x="1107" d="M159 421l321 416h82l-264 -416l264 -416h-85zM571 421q1 0 318 416h84l-264 -416l264 -416h-86z" />
<glyph unicode="&#xac;" horiz-adv-x="1437" d="M164 816v134h1184v-654h-143v520h-1041z" />
<glyph unicode="&#xad;" horiz-adv-x="817" d="M50 418v150h759v-150h-759z" />
<glyph unicode="&#xae;" horiz-adv-x="1812" d="M7 777q0 133 41 254.5t111 214.5t163.5 169.5t199.5 126t217 77t218 29.5q186 0 358.5 -68.5t300.5 -184t205 -278t77 -340.5q0 -150 -53.5 -286.5t-145.5 -239.5t-210 -179.5t-251.5 -116t-266.5 -39.5q-148 0 -290.5 41t-263.5 118.5t-213 181t-144.5 238.5t-52.5 282z M84 777q0 -120 41.5 -235.5t120 -212t184 -170.5t242 -116.5t285.5 -44.5q161 0 301.5 47t240.5 125t174 179.5t111.5 210.5t43.5 217q0 132 -48 254t-132 216t-193.5 165t-238 109.5t-259.5 40.5q-155 0 -294.5 -45t-242.5 -122t-179 -177.5t-115.5 -213.5t-41.5 -227z M564 314v902h325q211 0 311 -48.5t100 -176.5q0 -96 -77.5 -165.5t-217.5 -77.5v-23q0 -10 -11.5 -22.5t-11.5 -15.5q5 -18 48 -30q84 -27 140 -89t161 -221q11 -17 17 -26q0 -5 2 -5l-118 -2q-50 87 -80 135.5t-67.5 103t-65 81t-64 51.5t-73.5 33.5t-84 8.5h-148v-413h-86 zM650 796h250q155 0 227.5 49t72.5 130q0 178 -311 178h-239v-357z" />
<glyph unicode="&#xaf;" horiz-adv-x="1357" d="M-25 1541v96h1475v-96h-1475z" />
<glyph unicode="&#xb0;" horiz-adv-x="985" d="M186 1334q0 117 98 205.5t225 88.5q131 0 228 -88t97 -206q0 -128 -96 -215t-229 -87q-128 0 -225.5 87t-97.5 215zM243 1334q0 -103 78 -169.5t188 -66.5q111 0 189.5 66.5t78.5 169.5q0 92 -80 161t-188 69q-107 0 -186.5 -69t-79.5 -161z" />
<glyph unicode="&#xb1;" horiz-adv-x="1351" d="M118 5v136h1182v-136h-1182zM118 796v131h523v480h134v-480h525v-131h-525v-482h-134v482h-523z" />
<glyph unicode="&#xb4;" horiz-adv-x="817" d="M332 1364l145 270h198l-234 -270h-109z" />
<glyph unicode="&#xb6;" horiz-adv-x="1325" d="M20 1155q0 233 142.5 358.5t433.5 125.5h782v-139h-187v-2025h-134v2025h-382v-2025h-127v1241q-250 20 -389 136.5t-139 302.5z" />
<glyph unicode="&#xb7;" horiz-adv-x="768" d="M307 384v182h184v-182h-184z" />
<glyph unicode="&#xba;" horiz-adv-x="897" d="M82 1216q0 194 107.5 307.5t283.5 113.5q172 0 278 -114t106 -305q0 -188 -108 -298.5t-276 -114.5q-175 0 -283 110.5t-108 300.5zM186 1218q7 -156 80.5 -238t201.5 -82q131 0 207.5 79.5t76.5 247.5q0 157 -76 235.5t-203 78.5q-287 0 -287 -321z" />
<glyph unicode="&#xbb;" horiz-adv-x="1107" d="M134 2l312 416l-312 416h134l316 -418l-316 -414h-134zM596 2l261 416l-261 416h81l314 -416l-314 -416h-81z" />
<glyph unicode="&#xc0;" horiz-adv-x="1118" d="M18 0l459 1464h148l491 -1464h-143l-143 455h-546l-136 -455h-130zM318 577h475l-138 444q-60 186 -89 318l-36 -2q-34 -186 -66 -291zM318 1855h218l98 -246h-82z" />
<glyph unicode="&#xc1;" horiz-adv-x="1118" d="M18 0l459 1464h148l491 -1464h-143l-143 455h-546l-136 -455h-130zM318 577h475l-138 444q-60 186 -89 318l-36 -2q-34 -186 -66 -291zM425 1609q20 54 53 137.5t43 108.5h145l-159 -246h-82z" />
<glyph unicode="&#xc2;" horiz-adv-x="1118" d="M18 0l459 1464h148l491 -1464h-143l-143 455h-546l-136 -455h-130zM318 577h475l-138 444q-60 186 -89 318l-36 -2q-34 -186 -66 -291zM323 1609l154 246h139l164 -246h-123l-105 198l-106 -198h-123z" />
<glyph unicode="&#xc3;" horiz-adv-x="1118" d="M18 0l459 1464h148l491 -1464h-143l-143 455h-546l-136 -455h-130zM280 1609q4 86 45.5 140t104.5 54q23 0 108.5 -43.5t113.5 -43.5q58 0 80 89h70q-7 -94 -46 -143.5t-99 -49.5q-21 0 -109 47.5t-114 47.5q-34 0 -56 -25t-26 -73h-72zM318 577h475l-138 444 q-60 186 -89 318l-36 -2q-34 -186 -66 -291z" />
<glyph unicode="&#xc4;" horiz-adv-x="1118" d="M18 0l459 1464h148l491 -1464h-143l-143 455h-546l-136 -455h-130zM318 577h475l-138 444q-60 186 -89 318l-36 -2q-34 -186 -66 -291zM332 1687v168h116v-168h-116zM646 1687v168h116v-168h-116z" />
<glyph unicode="&#xc5;" horiz-adv-x="1118" d="M18 0l459 1464h148l491 -1464h-143l-143 455h-546l-136 -455h-130zM318 577h475l-138 444q-60 186 -89 318l-36 -2q-34 -186 -66 -291zM436 1735q0 66 40 114.5t92 48.5q56 0 94 -49t38 -119q0 -69 -39.5 -118.5t-92.5 -49.5q-51 0 -91.5 50.5t-40.5 122.5zM461 1732 q0 -56 33 -94t77 -38q43 0 76 38t33 94q0 55 -32.5 93.5t-76.5 38.5q-45 0 -77.5 -39t-32.5 -93z" />
<glyph unicode="&#xc6;" horiz-adv-x="1677" d="M20 0q112 289 317.5 807t260.5 657h977v-136h-620v-505h577v-134h-577v-553h645v-136h-766v434h-513l-169 -434h-132zM375 571h459v757h-159z" />
<glyph unicode="&#xc7;" horiz-adv-x="1210" d="M95 743q0 176 42.5 318.5t117.5 236t176.5 143.5t220.5 50q170 0 293.5 -104t175.5 -300l-123 -37q-89 312 -343 312q-197 0 -314.5 -156t-117.5 -463q0 -314 111.5 -476t306.5 -162q139 0 239.5 96.5t135.5 280.5l125 -39q-54 -231 -182.5 -349.5t-315.5 -118.5 l-29 -100q72 -10 111 -47t39 -89q0 -73 -60.5 -122t-157.5 -49q-61 0 -103 7q0 19 3.5 49.5t3.5 32.5l64 -3h13q67 0 102 28t35 70q0 41 -28.5 62.5t-99.5 26.5l35 139q-127 14 -210 75v-3q-121 83 -193.5 267t-72.5 424z" />
<glyph unicode="&#xc8;" horiz-adv-x="1118" d="M148 0v1464h852v-136h-729v-503h682v-134h-682v-555h759v-136h-882zM384 1855h150l98 -246h-80z" />
<glyph unicode="&#xc9;" horiz-adv-x="1118" d="M148 0v1464h852v-136h-729v-503h682v-134h-682v-555h759v-136h-882zM496 1609l97 246h146l-159 -246h-84z" />
<glyph unicode="&#xca;" horiz-adv-x="1118" d="M148 0v1464h852v-136h-729v-503h682v-134h-682v-555h759v-136h-882zM350 1609l155 246h141l161 -246h-123l-104 198l-107 -198h-123z" />
<glyph unicode="&#xcb;" horiz-adv-x="1118" d="M148 0v1464h852v-136h-729v-503h682v-134h-682v-555h759v-136h-882zM355 1687v168h118v-168h-118zM668 1687v168h119v-168h-119z" />
<glyph unicode="&#xcc;" horiz-adv-x="464" d="M182 0v1464h123v-1464h-123zM182 1855h54l98 -246h-82z" />
<glyph unicode="&#xcd;" horiz-adv-x="464" d="M180 1609q91 235 95 246h148l-159 -246h-84zM182 0v1464h120v-1464h-120z" />
<glyph unicode="&#xce;" horiz-adv-x="464" d="M9 1609l155 246h141l163 -246h-125l-104 198l-105 -198h-125zM182 0v1464h123v-1464h-123z" />
<glyph unicode="&#xcf;" horiz-adv-x="464" d="M27 1687v168h155l-39 -168h-116zM182 0v1464h123v-1464h-123zM341 1687v168h118v-168h-118z" />
<glyph unicode="&#xd0;" horiz-adv-x="1210" d="M7 684v96h134v684h407q137 0 240 -38t180 -121.5t116 -225.5t39 -340q0 -373 -135.5 -556t-419.5 -183h-427v684h-134zM264 136h284q126 0 213.5 40t138 120.5t72 188t21.5 256.5q0 318 -104 452.5t-346 134.5h-279v-548h341v-96h-341v-548z" />
<glyph unicode="&#xd1;" horiz-adv-x="1210" d="M141 0v1464h134l648 -1180l34 9v1171h116v-1464h-134l-648 1182l-34 -9v-1173h-116zM357 1609q4 86 46 140t104 54q24 0 109.5 -43.5t113.5 -43.5q62 0 79 89h71q-7 -94 -46.5 -143.5t-99.5 -49.5q-19 0 -108.5 47.5t-111.5 47.5q-34 0 -57 -25t-27 -73h-73z" />
<glyph unicode="&#xd2;" horiz-adv-x="1304" d="M98 712q0 183 44 332t121 246t180.5 149t224.5 52q117 0 220.5 -51.5t181.5 -145t123.5 -236.5t45.5 -315q0 -347 -158 -557.5t-413 -210.5q-163 0 -294 97.5t-203.5 266t-72.5 373.5zM225 709q0 -279 126 -441.5t315 -162.5q197 0 321.5 166t124.5 463q0 196 -66 357h2 q-46 117 -153 194t-224 77q-96 0 -175.5 -39.5t-141 -117.5t-95.5 -205t-34 -291zM502 1855h150l98 -246h-82z" />
<glyph unicode="&#xd3;" horiz-adv-x="1304" d="M98 712q0 183 44 332t121 246t180.5 149t224.5 52q117 0 220.5 -51.5t181.5 -145t123.5 -236.5t45.5 -315q0 -347 -158 -557.5t-413 -210.5q-163 0 -294 97.5t-203.5 266t-72.5 373.5zM225 709q0 -279 126 -441.5t315 -162.5q197 0 321.5 166t124.5 463q0 196 -66 357h2 q-46 117 -153 194t-224 77q-96 0 -175.5 -39.5t-141 -117.5t-95.5 -205t-34 -291zM555 1609l97 246h146l-159 -246h-84z" />
<glyph unicode="&#xd4;" horiz-adv-x="1304" d="M98 712q0 183 44 332t121 246t180.5 149t224.5 52q117 0 220.5 -51.5t181.5 -145t123.5 -236.5t45.5 -315q0 -347 -158 -557.5t-413 -210.5q-163 0 -294 97.5t-203.5 266t-72.5 373.5zM225 709q0 -279 126 -441.5t315 -162.5q197 0 321.5 166t124.5 463q0 196 -66 357h2 q-46 117 -153 194t-224 77q-96 0 -175.5 -39.5t-141 -117.5t-95.5 -205t-34 -291zM439 1609l154 246h141l162 -246h-123l-105 198l-106 -198h-123z" />
<glyph unicode="&#xd5;" horiz-adv-x="1304" d="M98 712q0 183 44 332t121 246t180.5 149t224.5 52q117 0 220.5 -51.5t181.5 -145t123.5 -236.5t45.5 -315q0 -347 -158 -557.5t-413 -210.5q-163 0 -294 97.5t-203.5 266t-72.5 373.5zM225 709q0 -279 126 -441.5t315 -162.5q197 0 321.5 166t124.5 463q0 196 -66 357h2 q-46 117 -153 194t-224 77q-96 0 -175.5 -39.5t-141 -117.5t-95.5 -205t-34 -291zM402 1609q4 88 45.5 141t104.5 53q22 0 108.5 -43.5t112.5 -43.5q62 0 79 89h71q-7 -94 -46.5 -143.5t-99.5 -49.5q-18 0 -106.5 47.5t-113.5 47.5q-33 0 -56 -25t-28 -73h-71z" />
<glyph unicode="&#xd6;" horiz-adv-x="1304" d="M98 712q0 183 44 332t121 246t180.5 149t224.5 52q117 0 220.5 -51.5t181.5 -145t123.5 -236.5t45.5 -315q0 -347 -158 -557.5t-413 -210.5q-163 0 -294 97.5t-203.5 266t-72.5 373.5zM225 709q0 -279 126 -441.5t315 -162.5q197 0 321.5 166t124.5 463q0 196 -66 357h2 q-46 117 -153 194t-224 77q-96 0 -175.5 -39.5t-141 -117.5t-95.5 -205t-34 -291zM434 1687v168h118v-168h-118zM748 1687v168h118v-168h-118z" />
<glyph unicode="&#xd7;" horiz-adv-x="978" d="M152 405l271 327l-268 325l77 93l266 -325l266 323l75 -91l-266 -325l268 -327l-77 -94l-268 326l-269 -326z" />
<glyph unicode="&#xd8;" horiz-adv-x="1304" d="M91 5l145 200q-91 178 -116 272t-25 248q0 179 45.5 326t123.5 242t182 146.5t222 51.5q104 0 189 -37t193 -138l141 193l55 -56l-148 -200q82 -152 109 -255.5t27 -263.5q0 -140 -28.5 -261.5t-80 -212t-121.5 -155.5t-155 -97.5t-178 -32.5q-112 0 -191 32v-2 q-84 38 -194 138q-101 -138 -141 -191zM223 730q0 -132 14.5 -202.5t76.5 -218.5l659 903q-91 89 -155.5 119.5t-149.5 30.5q-94 0 -174 -39.5t-141 -116t-95.5 -198.5t-34.5 -278zM364 246q74 -75 145.5 -108t154.5 -33q194 0 318.5 163.5t124.5 458.5q0 214 -86 416z" />
<glyph unicode="&#xd9;" horiz-adv-x="1210" d="M143 616v848h123v-848q0 -273 76.5 -387.5t257.5 -114.5q74 0 128 14t98 47.5t71 91t41.5 144t14.5 205.5v848h122v-848q0 -157 -22.5 -270t-74 -199t-143 -129t-223.5 -43q-97 0 -170 20t-130.5 66t-94 120.5t-55.5 182t-19 252.5zM436 1855h151l97 -246h-82z" />
<glyph unicode="&#xda;" horiz-adv-x="1210" d="M143 616v848h123v-848q0 -273 76.5 -387.5t257.5 -114.5q74 0 128 14t98 47.5t71 91t41.5 144t14.5 205.5v848h122v-848q0 -157 -22.5 -270t-74 -199t-143 -129t-223.5 -43q-97 0 -170 20t-130.5 66t-94 120.5t-55.5 182t-19 252.5zM509 1609l96 246h147l-159 -246h-84z " />
<glyph unicode="&#xdb;" horiz-adv-x="1210" d="M143 616v848h123v-848q0 -273 76.5 -387.5t257.5 -114.5q74 0 128 14t98 47.5t71 91t41.5 144t14.5 205.5v848h122v-848q0 -157 -22.5 -270t-74 -199t-143 -129t-223.5 -43q-97 0 -170 20t-130.5 66t-94 120.5t-55.5 182t-19 252.5zM382 1609l154 246h141l164 -246h-125 l-102 198l-107 -198h-125z" />
<glyph unicode="&#xdc;" horiz-adv-x="1210" d="M143 616v848h123v-848q0 -273 76.5 -387.5t257.5 -114.5q74 0 128 14t98 47.5t71 91t41.5 144t14.5 205.5v848h122v-848q0 -157 -22.5 -270t-74 -199t-143 -129t-223.5 -43q-97 0 -170 20t-130.5 66t-94 120.5t-55.5 182t-19 252.5zM384 1687v168h116v-168h-116z M698 1687v168h116v-168h-116z" />
<glyph unicode="&#xdd;" horiz-adv-x="1118" d="M34 1464h150l237 -443q77 -142 145 -294q64 145 152 305l232 432h143l-477 -841v-623h-123v623zM448 1609l95 246h146l-157 -246h-84z" />
<glyph unicode="&#xde;" horiz-adv-x="1118" d="M145 0v1464h123v-305h323q232 0 344.5 -98.5t112.5 -314.5q0 -194 -100 -321v2q-95 -122 -343 -122h-337v-305h-123zM268 443h341q159 0 234 73t75 221q0 90 -35.5 161t-93.5 95h2q-51 30 -186 30h-337v-580z" />
<glyph unicode="&#xdf;" horiz-adv-x="1024" d="M143 0v1016q0 491 343 491q125 0 209.5 -80t84.5 -195q0 -49 -14 -102q-12 -50 -63 -175t-51 -148q0 -44 25 -86v2q19 -34 105 -100h-2q126 -103 164 -164t38 -154q0 -144 -86 -241v2q-85 -91 -203 -91q-93 0 -167.5 56.5t-116.5 161.5l96 55q83 -162 182 -162 q75 0 127 59t52 141q0 63 -22.5 99.5t-106.5 107.5q-120 101 -161.5 158t-41.5 126q0 47 35 139t69.5 178t34.5 118q0 73 -54 127.5t-137 54.5q-76 0 -123.5 -31.5t-75.5 -118.5t-28 -237v-1007h-112z" />
<glyph unicode="&#xe0;" d="M73 268q0 85 30 145.5t75.5 92.5t114 55t132 34t143 29t134.5 40v61q0 136 -61 192t-175 56q-110 0 -168 -45t-87 -162l-109 18q32 157 125 230t262 73q102 0 167 -23.5t99.5 -77t46.5 -121t12 -174.5v-250q0 -244 5.5 -308.5t32.5 -132.5h-113q-17 54 -25 116l-37 14 q-149 -155 -316 -155q-132 0 -210 78.5t-78 214.5zM193 275q0 -89 55 -142t150 -53q140 0 222 95.5t82 288.5v102q-56 -27 -219 -66t-199 -59v2q-43 -24 -67 -68t-24 -100zM300 1489h150l100 -250h-82z" />
<glyph unicode="&#xe1;" d="M73 268q0 85 30 145.5t75.5 92.5t114 55t132 34t143 29t134.5 40v61q0 136 -61 192t-175 56q-110 0 -168 -45t-87 -162l-109 18q32 157 125 230t262 73q102 0 167 -23.5t99.5 -77t46.5 -121t12 -174.5v-250q0 -244 5.5 -308.5t32.5 -132.5h-113q-17 54 -25 116l-37 14 q-149 -155 -316 -155q-132 0 -210 78.5t-78 214.5zM193 275q0 -89 55 -142t150 -53q140 0 222 95.5t82 288.5v102q-56 -27 -219 -66t-199 -59v2q-43 -24 -67 -68t-24 -100zM386 1239q16 38 98 250h148l-159 -250h-87z" />
<glyph unicode="&#xe2;" d="M73 268q0 85 30 145.5t75.5 92.5t114 55t132 34t143 29t134.5 40v61q0 136 -61 192t-175 56q-110 0 -168 -45t-87 -162l-109 18q32 157 125 230t262 73q102 0 167 -23.5t99.5 -77t46.5 -121t12 -174.5v-250q0 -244 5.5 -308.5t32.5 -132.5h-113q-17 54 -25 116l-37 14 q-149 -155 -316 -155q-132 0 -210 78.5t-78 214.5zM193 275q0 -89 55 -142t150 -53q140 0 222 95.5t82 288.5v102q-56 -27 -219 -66t-199 -59v2q-43 -24 -67 -68t-24 -100zM248 1239q23 36 73.5 117.5t83.5 132.5h141l163 -250h-122l-107 200l-107 -200h-125z" />
<glyph unicode="&#xe3;" d="M73 268q0 85 30 145.5t75.5 92.5t114 55t132 34t143 29t134.5 40v61q0 136 -61 192t-175 56q-110 0 -168 -45t-87 -162l-109 18q32 157 125 230t262 73q102 0 167 -23.5t99.5 -77t46.5 -121t12 -174.5v-250q0 -244 5.5 -308.5t32.5 -132.5h-113q-17 54 -25 116l-37 14 q-149 -155 -316 -155q-132 0 -210 78.5t-78 214.5zM193 275q0 -89 55 -142t150 -53q140 0 222 95.5t82 288.5v102q-56 -27 -219 -66t-199 -59v2q-43 -24 -67 -68t-24 -100zM200 1241q4 88 47 140.5t105 52.5q24 0 110 -43t113 -43q66 0 82 91h70q-5 -96 -44 -146t-101 -50 q-23 0 -113 48t-110 48q-35 0 -57.5 -25.5t-26.5 -72.5h-75z" />
<glyph unicode="&#xe4;" d="M73 268q0 85 30 145.5t75.5 92.5t114 55t132 34t143 29t134.5 40v61q0 136 -61 192t-175 56q-110 0 -168 -45t-87 -162l-109 18q32 157 125 230t262 73q102 0 167 -23.5t99.5 -77t46.5 -121t12 -174.5v-250q0 -244 5.5 -308.5t32.5 -132.5h-113q-17 54 -25 116l-37 14 q-149 -155 -316 -155q-132 0 -210 78.5t-78 214.5zM193 275q0 -89 55 -142t150 -53q140 0 222 95.5t82 288.5v102q-56 -27 -219 -66t-199 -59v2q-43 -24 -67 -68t-24 -100zM243 1319v170h121v-170h-121zM564 1319v170h116v-170h-116z" />
<glyph unicode="&#xe5;" d="M73 268q0 85 30 145.5t75.5 92.5t114 55t132 34t143 29t134.5 40v61q0 136 -61 192t-175 56q-110 0 -168 -45t-87 -162l-109 18q32 157 125 230t262 73q102 0 167 -23.5t99.5 -77t46.5 -121t12 -174.5v-250q0 -244 5.5 -308.5t32.5 -132.5h-113q-17 54 -25 116l-37 14 q-149 -155 -316 -155q-132 0 -210 78.5t-78 214.5zM193 275q0 -89 55 -142t150 -53q140 0 222 95.5t82 288.5v102q-56 -27 -219 -66t-199 -59v2q-43 -24 -67 -68t-24 -100zM327 1414q0 68 40 117t92 49t92 -50.5t40 -120.5q0 -71 -38 -119.5t-94 -48.5t-94 49.5t-38 123.5z M350 1414q0 -59 33 -97.5t78 -38.5q44 0 77 38t33 96q0 56 -33 94t-77 38q-45 0 -78 -38t-33 -92z" />
<glyph unicode="&#xe6;" horiz-adv-x="1490" d="M61 268q0 82 25.5 139.5t64.5 88t103 53t124.5 34t146 32t150.5 44.5l2 57q0 142 -51.5 199.5t-170.5 57.5q-116 0 -174.5 -46t-82.5 -163l-107 16q33 164 121 235.5t247 71.5q116 0 189.5 -42t115.5 -127q131 169 295 169q172 0 277 -148.5t105 -392.5q0 -8 -1 -21 t-1 -20h-652q4 -220 72.5 -319.5t208.5 -99.5q88 0 153.5 60.5t94.5 171.5l116 -18q-44 -160 -140 -242.5t-233 -82.5q-100 0 -180.5 52.5t-153.5 165.5q-180 -218 -377 -218q-131 0 -209 82h2q-80 80 -80 211zM182 275q0 -87 53 -140t142 -53q72 0 125 20t93.5 66t61 129 t20.5 203v32l-29 20q-68 -38 -268 -75q-109 -21 -153.5 -71t-44.5 -131zM787 616h541q-13 181 -83.5 269t-182.5 88q-119 0 -193 -93t-82 -264z" />
<glyph unicode="&#xe7;" horiz-adv-x="837" d="M80 532q0 268 107.5 411.5t285.5 143.5q131 0 218.5 -79.5t113.5 -234.5l-105 -18q-27 109 -84 163.5t-139 54.5q-126 0 -205 -109.5t-79 -329.5q0 -223 75 -335.5t200 -112.5q98 0 163 67t83 206l109 -18q-25 -164 -110 -257t-208 -107l-28 -102q72 -12 112.5 -49.5 t40.5 -89.5q0 -72 -61 -122t-160 -50q-69 0 -104 9l6 81l37 -2q94 0 138 23.5t44 74.5q0 82 -130 89l32 138q-161 11 -256.5 153.5t-95.5 401.5z" />
<glyph unicode="&#xe8;" d="M73 521q0 271 111.5 418.5t288.5 147.5q173 0 282 -145t109 -410v-27h-678q10 -209 91 -314t205 -105q180 0 255 225l115 -18q-39 -156 -134.5 -237t-237.5 -81q-178 0 -296 139h2q-113 140 -113 407zM196 616h550q-15 181 -86.5 269t-186.5 88q-114 0 -190.5 -94.5 t-86.5 -262.5zM318 1489h153l97 -250h-82z" />
<glyph unicode="&#xe9;" d="M73 521q0 271 111.5 418.5t288.5 147.5q173 0 282 -145t109 -410v-27h-678q10 -209 91 -314t205 -105q180 0 255 225l115 -18q-39 -156 -134.5 -237t-237.5 -81q-178 0 -296 139h2q-113 140 -113 407zM196 616h550q-15 181 -86.5 269t-186.5 88q-114 0 -190.5 -94.5 t-86.5 -262.5zM389 1239l97 250h148l-161 -250h-84z" />
<glyph unicode="&#xea;" d="M73 521q0 271 111.5 418.5t288.5 147.5q173 0 282 -145t109 -410v-27h-678q10 -209 91 -314t205 -105q180 0 255 225l115 -18q-39 -156 -134.5 -237t-237.5 -81q-178 0 -296 139h2q-113 140 -113 407zM196 616h550q-15 181 -86.5 269t-186.5 88q-114 0 -190.5 -94.5 t-86.5 -262.5zM266 1239q33 50 82.5 129.5t76.5 120.5h141l164 -250h-125l-105 200l-109 -200h-125z" />
<glyph unicode="&#xeb;" d="M73 521q0 271 111.5 418.5t288.5 147.5q173 0 282 -145t109 -410v-27h-678q10 -209 91 -314t205 -105q180 0 255 225l115 -18q-39 -156 -134.5 -237t-237.5 -81q-178 0 -296 139h2q-113 140 -113 407zM196 616h550q-15 181 -86.5 269t-186.5 88q-114 0 -190.5 -94.5 t-86.5 -262.5zM259 1319v170h118v-170h-118zM575 1319v170h121v-170h-121z" />
<glyph unicode="&#xec;" horiz-adv-x="464" d="M189 0v1062h111v-1062h-111zM189 1489h20l98 -250h-82z" />
<glyph unicode="&#xed;" horiz-adv-x="464" d="M159 1239q17 46 48 124.5t48 125.5h150l-162 -250h-84zM189 0v1062h109v-1062h-109z" />
<glyph unicode="&#xee;" horiz-adv-x="464" d="M18 1239l157 250h141l166 -250h-125l-105 200l-109 -200h-125zM189 0v1062h111v-1062h-111z" />
<glyph unicode="&#xef;" horiz-adv-x="464" d="M20 1319v170h169l-50 -170h-119zM189 0v1062h111v-1062h-111zM336 1319v170h121v-170h-121z" />
<glyph unicode="&#xf0;" d="M70 514q0 258 103.5 403t260.5 145q53 0 85.5 -13t139.5 -83q-75 184 -159 302l-227 -129l-25 70l211 116q-81 92 -154 155h120q41 -34 111 -109q32 19 96 54t80 44l25 -64l-153 -89q282 -394 282 -793q0 -249 -111.5 -398.5t-286.5 -149.5q-180 0 -289 139t-109 400z M186 511q0 -210 78.5 -318.5t203.5 -108.5q121 0 201.5 118t80.5 325q0 200 -81.5 316t-204.5 116q-125 0 -201.5 -114t-76.5 -334z" />
<glyph unicode="&#xf1;" d="M125 0v1062h96v-148l34 -9q98 182 272 182q66 0 124 -27t95 -71q40 -50 55 -116t15 -216v-657h-111v650q0 167 -50.5 240.5t-158.5 73.5q-262 0 -262 -382v-582h-109zM230 1241q4 87 46.5 140t103.5 53q24 0 109 -43t116 -43q63 0 79 91h73q-7 -96 -46.5 -146t-101.5 -50 q-22 0 -112.5 48t-110.5 48q-35 0 -57.5 -25.5t-26.5 -72.5h-72z" />
<glyph unicode="&#xf2;" d="M66 530q0 267 112 412t293 145q175 0 288.5 -144t113.5 -402q0 -278 -111.5 -422t-290.5 -144q-178 0 -291.5 145t-113.5 410zM182 530q0 -216 82 -330t209 -114q124 0 204 118t80 326q0 215 -82.5 329t-208.5 114q-124 0 -204 -116t-80 -327zM307 1489h152l98 -250h-82z " />
<glyph unicode="&#xf3;" d="M66 530q0 267 112 412t293 145q175 0 288.5 -144t113.5 -402q0 -278 -111.5 -422t-290.5 -144q-178 0 -291.5 145t-113.5 410zM182 530q0 -216 82 -330t209 -114q124 0 204 118t80 326q0 215 -82.5 329t-208.5 114q-124 0 -204 -116t-80 -327zM386 1239q16 38 98 250h148 l-159 -250h-87z" />
<glyph unicode="&#xf4;" d="M66 530q0 267 112 412t293 145q175 0 288.5 -144t113.5 -402q0 -278 -111.5 -422t-290.5 -144q-178 0 -291.5 145t-113.5 410zM182 530q0 -216 82 -330t209 -114q124 0 204 118t80 326q0 215 -82.5 329t-208.5 114q-124 0 -204 -116t-80 -327zM236 1239q23 36 73.5 117.5 t83.5 132.5h141l166 -250h-125l-104 200l-110 -200h-125z" />
<glyph unicode="&#xf5;" d="M66 530q0 267 112 412t293 145q175 0 288.5 -144t113.5 -402q0 -278 -111.5 -422t-290.5 -144q-178 0 -291.5 145t-113.5 410zM182 530q0 -216 82 -330t209 -114q124 0 204 118t80 326q0 215 -82.5 329t-208.5 114q-124 0 -204 -116t-80 -327zM196 1241q4 87 47 140 t103 53q25 0 112 -43t113 -43q33 0 51.5 22t29.5 69h71q-7 -96 -46.5 -146t-101.5 -50q-19 0 -110 48t-110 48q-35 0 -58.5 -25.5t-28.5 -72.5h-72z" />
<glyph unicode="&#xf6;" d="M66 530q0 267 112 412t293 145q175 0 288.5 -144t113.5 -402q0 -278 -111.5 -422t-290.5 -144q-178 0 -291.5 145t-113.5 410zM182 530q0 -216 82 -330t209 -114q124 0 204 118t80 326q0 215 -82.5 329t-208.5 114q-124 0 -204 -116t-80 -327zM243 1319v170h121v-170 h-121zM564 1319v170h116v-170h-116z" />
<glyph unicode="&#xf7;" horiz-adv-x="1122" d="M91 664v132h962v-132h-962zM486 332v170h171v-170h-171zM486 957v173h171v-173h-171z" />
<glyph unicode="&#xf8;" horiz-adv-x="1024" d="M127 514q0 279 111 426t289 147q64 0 124 -23t136 -77l81 131l50 -45l-86 -139q63 -107 82.5 -190.5t19.5 -213.5q0 -269 -111.5 -412t-299.5 -143q-123 0 -239 93l-88 -138l-48 45l88 143q-68 97 -88.5 184.5t-20.5 211.5zM243 534q0 -158 62 -309l416 659 q-97 89 -191 89q-123 0 -205 -114.5t-82 -324.5zM350 170q81 -84 175 -84q130 0 211.5 114.5t81.5 333.5q0 87 -9 133.5t-47 157.5z" />
<glyph unicode="&#xf9;" d="M120 398v664h112v-591q0 -211 45.5 -293.5t161.5 -82.5q261 0 261 396v571h112v-1062h-96v152l-32 9q-104 -186 -275 -186q-158 0 -223.5 104.5t-65.5 318.5zM252 1489h153l97 -250h-81z" />
<glyph unicode="&#xfa;" d="M120 398v664h112v-591q0 -211 45.5 -293.5t161.5 -82.5q261 0 261 396v571h112v-1062h-96v152l-32 9q-104 -186 -275 -186q-158 0 -223.5 104.5t-65.5 318.5zM386 1239q16 38 98 250h232l-243 -250h-87z" />
<glyph unicode="&#xfb;" d="M120 398v664h112v-591q0 -211 45.5 -293.5t161.5 -82.5q261 0 261 396v571h112v-1062h-96v152l-32 9q-104 -186 -275 -186q-158 0 -223.5 104.5t-65.5 318.5zM243 1239q23 36 73.5 117.5t83.5 132.5h141l175 -250h-134l-107 200l-107 -200h-125z" />
<glyph unicode="&#xfc;" d="M120 398v664h112v-591q0 -211 45.5 -293.5t161.5 -82.5q261 0 261 396v571h112v-1062h-96v152l-32 9q-104 -186 -275 -186q-158 0 -223.5 104.5t-65.5 318.5zM252 1319v170h119v-170h-119zM571 1319v170h118v-170h-118z" />
<glyph unicode="&#xfd;" horiz-adv-x="837" d="M48 1062h120l187 -626q37 -128 66 -261h36q27 137 64 257l188 630h112l-337 -1096q-56 -180 -96.5 -266t-81.5 -117t-108 -31q-36 0 -80 16l-11 134q30 -9 63 -9q20 0 33.5 0.5t28 4t23 6t20 13.5t17 18t16 28t16.5 35t17.5 48t19.5 58t23 73zM343 1239q58 150 100 250 h146l-159 -250h-87z" />
<glyph unicode="&#xfe;" d="M123 -423v1903h111v-578q50 65 85 102.5t67 55.5t55.5 22.5t63.5 4.5q155 0 258 -142.5t103 -398.5q0 -263 -108 -417t-265 -154q-47 0 -75.5 8t-75 48.5t-108.5 123.5v-578h-111zM221 523q0 -212 73.5 -324.5t189.5 -112.5q112 0 190 116.5t78 333.5q0 215 -76.5 330.5 t-191.5 115.5q-100 0 -186 -123h2q-79 -111 -79 -336z" />
<glyph unicode="&#xff;" horiz-adv-x="837" d="M48 1062h120l187 -626q37 -128 66 -261h36q27 137 64 257l188 630h112l-337 -1096q-56 -180 -96.5 -266t-81.5 -117t-108 -31q-36 0 -80 16l-11 134q30 -9 63 -9q20 0 33.5 0.5t28 4t23 6t20 13.5t17 18t16 28t16.5 35t17.5 48t19.5 58t23 73zM205 1319v170h120v-170 h-120zM523 1319v170h118v-170h-118z" />
<glyph unicode="&#x2da;" horiz-adv-x="854" d="M221 1421q0 87 67.5 151.5t161.5 64.5q92 0 161 -65.5t69 -152.5q0 -92 -68 -159t-160 -67q-100 0 -165.5 67t-65.5 161zM305 1421q0 -51 44 -90.5t103 -39.5q58 0 101 38.5t43 89.5q0 48 -43 85t-101 37q-60 0 -103.5 -35.5t-43.5 -84.5z" />
<glyph unicode="&#x2dc;" horiz-adv-x="817" d="M32 1423q45 209 220 209q22 0 161.5 -51t193.5 -51q58 0 89 22t45 82h82q-15 -102 -71 -155.5t-138 -53.5q-38 0 -174 54.5t-172 54.5q-120 0 -145 -111h-91z" />
<glyph unicode="&#x401;" horiz-adv-x="1118" d="M148 0v1464h852v-136h-729v-503h682v-134h-682v-555h759v-136h-882zM359 1687v168h116v-168h-116zM673 1687v168h118v-168h-118z" />
<glyph unicode="&#x410;" horiz-adv-x="1118" d="M18 0l459 1464h148l491 -1464h-143l-143 455h-546l-136 -455h-130zM318 577h475l-138 444q-60 186 -89 318l-36 -2q-34 -186 -66 -291z" />
<glyph unicode="&#x411;" horiz-adv-x="1099" d="M152 0v1464h762v-136h-639v-505h316q225 0 337.5 -95.5t112.5 -311.5q0 -213 -106 -314.5t-319 -101.5h-464zM275 130h348q141 0 212.5 66t71.5 215q0 76 -15.5 125.5t-58 86.5t-120.5 53.5t-199 16.5h-239v-563z" />
<glyph unicode="&#x412;" horiz-adv-x="1118" d="M141 0v1464h441q182 0 286.5 -95.5t104.5 -268.5q0 -99 -52 -183t-148 -142q122 -45 190.5 -138t68.5 -221q0 -416 -443 -416h-448zM261 136h328q165 0 239 67.5t74 212.5q0 139 -79 209.5t-255 70.5h-307v-560zM261 832h289q160 0 231 56t71 190q0 88 -26 140t-97.5 81 t-198.5 29h-269v-496z" />
<glyph unicode="&#x413;" horiz-adv-x="894" d="M148 0v1466h709v-138h-584v-1328h-125z" />
<glyph unicode="&#x414;" horiz-adv-x="1136" d="M14 136h86q159 289 159 1130v198h709v-1328h112v-488h-107v352h-855v-352h-104v488zM259 136h587v1192h-471v-96q0 -231 -28.5 -561t-87.5 -535z" />
<glyph unicode="&#x415;" horiz-adv-x="1118" d="M148 0v1464h852v-136h-729v-503h682v-134h-682v-555h759v-136h-882z" />
<glyph unicode="&#x416;" horiz-adv-x="1546" d="M27 0l241 473q111 218 271 273q-81 40 -116 70.5t-61 82.5t-66 176q-29 90 -51 140t-49 77t-52.5 33.5t-70.5 6.5h-46v132q40 0 61 -0.5t51 -3t44.5 -6.5t36 -13.5t33 -21t29 -31t28.5 -42.5l27.5 -57.5t31 -72.5t33.5 -91l34.5 -96t29 -73t28 -58t29.5 -39t35 -28.5 t42.5 -14.5t54 -9.5t68.5 -1.5v659h127v-659q52 0 87 3.5t65.5 22.5t47 32.5t39.5 60.5t34.5 78t40.5 112q3 7 4 11q63 177 91 226q41 72 108 94q56 19 177 19v-132h-50q-58 0 -91.5 -18.5t-63.5 -72.5t-64 -166q-23 -68 -37 -105.5t-33 -73t-28.5 -50t-36.5 -36t-44 -31 t-62 -33.5q45 -15 88 -48t83 -83.5t74 -102.5t72 -123.5t65.5 -128t65.5 -135t62 -125.5h-160l-200 398q-53 104 -86.5 158.5t-72 91t-76.5 47t-99 10.5v-705h-127v705q-44 0 -77 -5.5t-62 -23.5t-48.5 -35t-46 -57.5t-44 -72t-52.5 -96.5l-3 -6t-3 -5t-3 -6l-200 -398h-157 z" />
<glyph unicode="&#x417;" horiz-adv-x="1013" d="M82 391l116 36q12 -56 39 -111.5t66 -103.5t94.5 -77.5t116.5 -29.5q131 0 215.5 85t84.5 212q0 136 -89 214h2q-88 77 -229 77h-57v132q73 3 128.5 16.5t101 43t69.5 81.5t24 125q0 106 -68 186t-185 80q-67 0 -123 -30t-91.5 -79.5t-56.5 -109.5t-24 -124l-114 32 q58 445 412 445q111 0 197 -56t129.5 -144.5t43.5 -190.5q0 -198 -184 -334q243 -80 243 -357q0 -189 -119 -311.5t-310 -122.5q-331 0 -432 416z" />
<glyph unicode="&#x418;" horiz-adv-x="1204" d="M148 0v1464h107v-1180l34 -9l657 1189h129v-1464h-107v1180l-34 7l-657 -1187h-129z" />
<glyph unicode="&#x419;" horiz-adv-x="1204" d="M148 0v1464h107v-1180l34 -9l657 1189h129v-1464h-107v1180l-34 7l-657 -1187h-129zM411 1832h62q30 -138 159 -138q70 0 110.5 32.5t57.5 105.5h62q-15 -111 -75 -168t-153 -57q-91 0 -149.5 57t-73.5 168z" />
<glyph unicode="&#x41a;" horiz-adv-x="974" d="M148 0v1464h123v-659q38 0 64 1.5t51 9.5t40 14.5t33.5 28.5t29.5 39t29 58t30 73l36 96q22 65 36 101.5t32.5 79t35.5 64.5t39.5 44.5t49.5 32.5t61.5 16t79.5 6q17 0 41 -3v-134h-50q-42 0 -64.5 -5.5t-50 -30.5t-51.5 -77.5t-54 -143.5q-41 -127 -68.5 -180t-55.5 -77 t-106 -65q-8 -5 -13 -7q158 -53 272 -273l239 -473h-157q-19 36 -53 104q-199 390 -272 495.5t-168 105.5l-36 -3v-702h-123z" />
<glyph unicode="&#x41b;" horiz-adv-x="1099" d="M32 -7l20 132q28 -11 53 -11q26 0 43 4.5t35.5 22t28.5 50t17 91.5t7 143v1039h732v-1464h-122v1328h-487v-796q0 -305 -44.5 -431t-175.5 -126q-54 0 -107 18z" />
<glyph unicode="&#x41c;" horiz-adv-x="1396" d="M139 0v1464h209l352 -1328h32l359 1328h184v-1464h-116v1380l-38 -130q-40 -142 -162.5 -577t-190.5 -673h-116l-397 1403v-1403h-116z" />
<glyph unicode="&#x41d;" horiz-adv-x="1210" d="M143 0v1464h123v-618h684v618h123v-1464h-123v709h-684v-709h-123z" />
<glyph unicode="&#x41e;" horiz-adv-x="1304" d="M98 712q0 183 44 332t121 246t180.5 149t224.5 52q117 0 220.5 -51.5t181.5 -145t123.5 -236.5t45.5 -315q0 -347 -158 -557.5t-413 -210.5q-163 0 -294 97.5t-203.5 266t-72.5 373.5zM225 709q0 -279 126 -441.5t315 -162.5q197 0 321.5 166t124.5 463q0 196 -66 357h2 q-46 117 -153 194t-224 77q-96 0 -175.5 -39.5t-141 -117.5t-95.5 -205t-34 -291z" />
<glyph unicode="&#x41f;" horiz-adv-x="1210" d="M150 0v1464h930v-1464h-123v1328h-682v-1328h-125z" />
<glyph unicode="&#x420;" horiz-adv-x="1118" d="M145 0v1464h446q240 0 347.5 -98t107.5 -313q0 -439 -441 -439h-337v-614h-123zM268 748h341q159 0 234 72.5t75 222.5q0 99 -36 164v-2q-38 73 -93 98h2q-56 25 -186 25h-337v-580z" />
<glyph unicode="&#x421;" horiz-adv-x="1210" d="M95 743q0 176 42.5 318.5t117.5 236t176.5 143.5t220.5 50q170 0 293.5 -104t175.5 -300l-123 -37q-89 312 -343 312q-197 0 -314.5 -156t-117.5 -463q0 -314 111.5 -476t306.5 -162q139 0 239.5 96.5t135.5 280.5l125 -39q-54 -231 -182.5 -349.5t-315.5 -118.5 q-170 0 -282 80v-3q-121 83 -193.5 267t-72.5 424z" />
<glyph unicode="&#x422;" horiz-adv-x="1024" d="M55 1328v136h938v-136h-409v-1328h-120v1328h-409z" />
<glyph unicode="&#x423;" horiz-adv-x="1062" d="M32 1464h120l419 -955l363 955h119l-453 -1141q-46 -116 -76 -179t-62.5 -102.5t-62.5 -50.5t-78 -11q-56 0 -137 29v121q54 -32 118 -32q49 0 80 17.5t66 79.5t75 185z" />
<glyph unicode="&#x424;" horiz-adv-x="1273" d="M80 739q0 240 141 389h-3q141 146 373 156v180h111v-180q244 -17 377 -165t133 -380q0 -230 -133 -379.5t-377 -166.5v-193h-111v193q-231 10 -373 157h3q-141 149 -141 389zM207 739q0 -190 101 -296.5t283 -117.5v830q-184 -11 -284 -121v3q-100 -111 -100 -298z M702 325q183 11 282.5 116t99.5 298q0 189 -97 296t-285 120v-830z" />
<glyph unicode="&#x425;" horiz-adv-x="1118" d="M36 0l466 764q-44 76 -188 321.5t-221 378.5h146l220 -375q69 -118 114 -223q71 133 116 207l245 391h128l-421 -689l455 -775h-153l-306 525q-38 68 -71 139l-77 -150l-305 -514h-148z" />
<glyph unicode="&#x426;" horiz-adv-x="1241" d="M145 0v1464h123v-1328h685v1328h122v-1328h112v-554h-103v418h-939z" />
<glyph unicode="&#x427;" horiz-adv-x="1118" d="M86 1041v423h123v-402q0 -224 68 -323.5t205 -99.5q182 0 382 100v725h123v-1464h-123v618q-243 -111 -405 -111q-103 0 -176 37.5t-115.5 109.5t-62 166.5t-19.5 220.5z" />
<glyph unicode="&#x428;" horiz-adv-x="1538" d="M143 0v1464h125v-1328h450v1328h123v-1328h452v1328h121v-1464h-1271z" />
<glyph unicode="&#x429;" horiz-adv-x="1572" d="M143 0v1464h123v-1328h450v1328h125v-1328h450v1328h123v-1328h111v-554h-104v418h-1278z" />
<glyph unicode="&#x42a;" horiz-adv-x="1327" d="M11 1328v136h498v-643h316q224 0 338.5 -94.5t114.5 -312.5q0 -67 -12 -124t-43 -111.5t-79.5 -93t-126.5 -62t-180 -23.5h-451v1328h-375zM509 130h321q163 0 238 67t75 217q0 104 -36 162.5t-121.5 86.5t-237.5 28h-239v-561z" />
<glyph unicode="&#x42b;" horiz-adv-x="1564" d="M148 0v1464h123v-643h313q227 0 341 -94.5t114 -310.5q0 -67 -12 -124t-43 -112t-79.5 -94t-126.5 -62.5t-180 -23.5h-450zM271 130h318q164 0 238.5 67t74.5 219q0 104 -35.5 162t-120.5 85.5t-237 27.5h-238v-561zM1307 0v1464h123v-1464h-123z" />
<glyph unicode="&#x42c;" horiz-adv-x="1099" d="M150 0v1464h123v-643h316q223 0 337.5 -94t114.5 -311q0 -67 -11.5 -124.5t-42.5 -112.5t-79.5 -93.5t-127 -62t-180.5 -23.5h-450zM273 130h320q163 0 237.5 67t74.5 219q0 58 -9.5 99.5t-35 76.5t-69.5 55.5t-112.5 32t-164.5 11.5h-241v-561z" />
<glyph unicode="&#x42d;" horiz-adv-x="1204" d="M89 439q114 36 116 36q23 -107 61 -181t88.5 -116t107.5 -60t129 -18q178 0 289 159v-2q111 159 118 432h-457v136h452q-26 268 -135.5 400t-282.5 132q-272 0 -350 -311l-120 41q49 196 171.5 300t298.5 104q128 0 234 -60.5t175 -163t106.5 -236.5t37.5 -283 q0 -126 -21 -239.5t-65 -211.5t-107.5 -169.5t-153 -112t-197.5 -40.5q-395 0 -495 464z" />
<glyph unicode="&#x42e;" horiz-adv-x="1691" d="M145 0v1464h123v-675h280q17 324 164 513t372 189q110 0 207 -50.5t171.5 -143.5t117.5 -237t43 -319q0 -348 -149 -557t-394 -209q-156 0 -271.5 88t-178.5 238.5t-80 353.5h-282v-655h-123zM671 725q0 -290 112 -455t299 -165q193 0 303.5 166.5t110.5 465.5 q0 296 -111.5 461.5t-297.5 165.5q-190 0 -303 -168t-113 -471z" />
<glyph unicode="&#x42f;" horiz-adv-x="1210" d="M50 0l200 380q5 9 19.5 37t19 36t18 30.5t21.5 31.5t23.5 28t30.5 31t36.5 30t47 35t57.5 36q-187 32 -285.5 135t-98.5 265q0 197 97.5 293t320.5 96h527v-1464h-122v668h-210h-43q-36 0 -58.5 -5t-54 -24.5t-62 -58.5t-73 -107t-95.5 -171l-157 -302h-159zM266 1073 q0 -273 323 -273h373v539h-412q-140 0 -212 -69.5t-72 -196.5z" />
<glyph unicode="&#x430;" d="M73 268q0 85 30 145.5t75.5 92.5t114 55t132 34t143 29t134.5 40v61q0 136 -61 192t-175 56q-110 0 -168 -45t-87 -162l-109 18q32 157 125 230t262 73q102 0 167 -23.5t99.5 -77t46.5 -121t12 -174.5v-250q0 -244 5.5 -308.5t32.5 -132.5h-113q-17 54 -25 116l-37 14 q-149 -155 -316 -155q-132 0 -210 78.5t-78 214.5zM193 275q0 -89 55 -142t150 -53q140 0 222 95.5t82 288.5v102q-56 -27 -219 -66t-199 -59v2q-43 -24 -67 -68t-24 -100z" />
<glyph unicode="&#x431;" horiz-adv-x="960" d="M89 752q0 433 116 585v-3q119 146 359 146q78 0 111.5 0.5t58.5 5t31 10.5t15 20h102q-4 -43 -10 -70t-19.5 -49t-31.5 -33.5t-51.5 -19.5t-74 -10t-104.5 -2q-126 0 -204 -23t-124 -81.5t-63 -142t-20 -221.5l34 -12q112 210 295 210q173 0 282 -148t109 -384 q0 -152 -44.5 -276t-136 -201.5t-214.5 -77.5q-76 0 -132.5 15.5t-112.5 64.5t-91.5 132.5t-57.5 226t-22 338.5zM221 500q0 -198 80 -307t206 -109q120 0 197.5 124t77.5 326q0 192 -77 300h2q-76 114 -202 114q-133 0 -208.5 -118t-75.5 -330z" />
<glyph unicode="&#x432;" horiz-adv-x="890" d="M127 0v1062h332q56 0 101.5 -6.5t89 -25t73 -48t47 -79t17.5 -114.5q0 -146 -128 -239q168 -76 168 -264q0 -61 -16.5 -111t-52.5 -90.5t-98 -62.5t-146 -22h-387zM236 111h225q136 0 193.5 45t57.5 140q0 101 -58 144.5t-208 43.5h-210v-373zM236 598h187 q127 0 188.5 37t61.5 138q0 98 -56 136.5t-190 38.5h-191v-350z" />
<glyph unicode="&#x433;" horiz-adv-x="612" d="M130 0v1062h479v-114h-368v-948h-111z" />
<glyph unicode="&#x434;" horiz-adv-x="976" d="M11 111h73q164 274 164 951h589v-951h97v-425h-84v314h-755v-314h-84v425zM186 111h539v837h-391q-17 -558 -148 -837z" />
<glyph unicode="&#x435;" d="M73 521q0 271 111.5 418.5t288.5 147.5q173 0 282 -145t109 -410v-27h-678q10 -209 91 -314t205 -105q180 0 255 225l115 -18q-39 -156 -134.5 -237t-237.5 -81q-178 0 -296 139h2q-113 140 -113 407zM196 616h550q-15 181 -86.5 269t-186.5 88q-114 0 -190.5 -94.5 t-86.5 -262.5z" />
<glyph unicode="&#x436;" horiz-adv-x="1122" d="M18 0l155 311q44 90 102 149t123 79q-28 17 -44.5 26.5t-35 25t-26.5 20.5t-21 24.5t-16 24.5t-14.5 34t-14.5 38.5t-16.5 53t-20.5 64.5q-19 57 -44.5 77.5t-80.5 20.5h-23l2 114q83 0 117 -14t61 -55q32 -69 59 -140.5t40 -109t30 -74t36 -52t50 -24.5t80 -9v478h114 v-478q101 0 132 34t90 195q5 12 7 19q49 137 68 167q27 46 78 57q31 6 98 6l2 -114h-25q-55 0 -81 -19t-44 -79q-8 -25 -20.5 -65t-16.5 -53.5t-14 -40t-14 -33.5t-16 -25t-20.5 -23.5t-26.5 -19.5t-35 -23.5t-46 -25.5q134 -44 227 -230l152 -311h-120l-159 330 q-53 108 -95.5 143.5t-120.5 35.5v-509h-114v509q-80 0 -122.5 -33t-95.5 -146l-157 -330h-123z" />
<glyph unicode="&#x437;" horiz-adv-x="768" d="M57 275l104 25q29 -102 90.5 -159t144.5 -57q88 0 144 60.5t56 148.5q0 78 -34 128v-3q-39 52 -77 67t-128 15l-27 -2v107q114 0 171.5 39.5t57.5 142.5q0 86 -46.5 136t-121.5 50q-136 0 -198 -182l-104 23q72 273 304 273q129 0 208 -89.5t79 -217.5q0 -119 -121 -216 q150 -102 150 -278q0 -143 -84.5 -227t-231.5 -84q-282 0 -336 300z" />
<glyph unicode="&#x438;" horiz-adv-x="937" d="M127 0v1062h109v-830l37 -9l425 839h129v-1062h-111v823l-34 9l-425 -832h-130z" />
<glyph unicode="&#x439;" d="M127 0v1062h109v-830l37 -9l425 839h129v-1062h-111v823l-34 9l-425 -832h-130zM243 1478h64q35 -141 161 -141q70 0 111 34t58 107h63q-15 -112 -75 -170t-152 -58q-94 0 -154.5 58t-75.5 170z" />
<glyph unicode="&#x43a;" horiz-adv-x="733" d="M127 0v1062h109v-478q106 0 141 41q11 13 78.5 182t83.5 193h-3q29 39 61.5 50.5t114.5 11.5l2 -114h-25q-55 0 -81 -21t-44 -77q-49 -156 -59 -178q-23 -52 -70 -84q-25 -18 -80 -47q131 -44 227 -230l152 -311h-120l-159 330q-52 107 -95 143t-124 36v-509h-109z" />
<glyph unicode="&#x43b;" horiz-adv-x="976" d="M32 -2v116q94 3 111 11q27 6 34 16q23 33 23 214v707h673v-1062h-114v948h-445v-571q0 -56 -0.5 -88t-2 -73.5t-5 -64t-9.5 -50t-15.5 -41.5t-23 -29.5t-31.5 -22t-41 -11t-52 -4.5q-12 0 -102 5z" />
<glyph unicode="&#x43c;" horiz-adv-x="1150" d="M130 0v1062h202l252 -937l280 937h184v-1062h-114v873l-36 4l-266 -877h-107l-248 921l-41 -7v-914h-106z" />
<glyph unicode="&#x43d;" horiz-adv-x="923" d="M127 0v1062h109v-460h469v460h111v-1062h-111v489h-469v-489h-109z" />
<glyph unicode="&#x43e;" d="M66 530q0 267 112 412t293 145q175 0 288.5 -144t113.5 -402q0 -278 -111.5 -422t-290.5 -144q-178 0 -291.5 145t-113.5 410zM182 530q0 -216 82 -330t209 -114q124 0 204 118t80 326q0 215 -82.5 329t-208.5 114q-124 0 -204 -116t-80 -327z" />
<glyph unicode="&#x43f;" horiz-adv-x="909" d="M127 0v1062h673v-1062h-111v948h-450v-948h-112z" />
<glyph unicode="&#x440;" d="M123 -423v1485h100v-200q69 118 137 171.5t145 53.5q155 0 258 -142.5t103 -398.5q0 -264 -108 -417.5t-265 -153.5q-131 0 -259 186v-584h-111zM221 523q0 -212 73.5 -324.5t189.5 -112.5q112 0 190 116.5t78 333.5q0 215 -76.5 330.5t-191.5 115.5q-100 0 -186 -123h2 q-79 -111 -79 -336z" />
<glyph unicode="&#x441;" horiz-adv-x="837" d="M80 532q0 268 107.5 411.5t285.5 143.5q131 0 218.5 -79.5t113.5 -234.5l-105 -18q-27 109 -84 163.5t-139 54.5q-126 0 -205 -109.5t-79 -329.5q0 -223 75 -335.5t200 -112.5q98 0 163 67t83 206l109 -18q-28 -177 -124.5 -271.5t-232.5 -94.5q-174 0 -280 142.5 t-106 414.5z" />
<glyph unicode="&#x442;" horiz-adv-x="768" d="M45 948v114h694v-114h-291v-948h-114v948h-289z" />
<glyph unicode="&#x443;" horiz-adv-x="837" d="M48 1062h120l187 -626q37 -128 66 -261h36q27 137 64 257l188 630h112l-337 -1096q-56 -180 -96.5 -266t-81.5 -117t-108 -31q-36 0 -80 16l-11 134q30 -9 63 -9q20 0 33.5 0.5t28 4t23 6t20 13.5t17 18t16 28t16.5 35t17.5 48t19.5 58t23 73z" />
<glyph unicode="&#x444;" horiz-adv-x="1378" d="M73 541q0 135 28.5 242t76 172t105.5 98.5t122 33.5q122 0 243 -182v575h114v-571q127 178 247 178q144 0 236 -154.5t92 -400.5q0 -158 -43 -285.5t-119.5 -199.5t-171.5 -72q-116 0 -241 159v-557h-114v559q-123 -161 -243 -161q-145 0 -238.5 159.5t-93.5 406.5z M186 532q0 -227 68 -336.5t176 -109.5q220 0 220 430q0 457 -229 457q-104 0 -169.5 -111t-65.5 -330zM759 514q0 -213 56 -321.5t165 -108.5q107 0 175 119t68 336q0 215 -66 325.5t-173 110.5q-225 0 -225 -461z" />
<glyph unicode="&#x445;" horiz-adv-x="837" d="M41 0l318 552l-295 510h143l214 -407l234 407h134l-298 -498l323 -564h-139q-68 117 -179 332l-69 127q-41 -77 -129 -237.5t-121 -221.5h-136z" />
<glyph unicode="&#x446;" horiz-adv-x="960" d="M127 0v1062h112v-951h466v951h111v-951h100v-534h-84v423h-705z" />
<glyph unicode="&#x447;" horiz-adv-x="872" d="M70 793v269h112v-189q0 -74 5.5 -128.5t20 -101.5t39.5 -76t64.5 -45.5t93.5 -16.5q98 0 247 63v494h112v-1062h-112v455q-165 -64 -286 -64q-134 0 -215 104t-81 298z" />
<glyph unicode="&#x448;" horiz-adv-x="1345" d="M127 0v1062h112v-948h391v948h113v-948h391v948h109v-1062h-1116z" />
<glyph unicode="&#x449;" horiz-adv-x="1378" d="M125 0v1062h111v-951h391v951h114v-951h391v951h109v-951h103v-534h-85v423h-1134z" />
<glyph unicode="&#x44a;" horiz-adv-x="1046" d="M11 948v114h396v-432h216q172 0 272.5 -80t100.5 -236q0 -64 -19.5 -119.5t-58.5 -99.5t-105.5 -69.5t-153.5 -25.5h-363v948h-285zM407 109h182q72 0 125.5 12t84.5 30.5t50 46.5t25 55t6 61q0 101 -62.5 151.5t-205.5 50.5h-205v-407z" />
<glyph unicode="&#x44b;" horiz-adv-x="1247" d="M120 0v1062h112v-432h216q99 0 173 -25.5t116.5 -70t63 -99.5t20.5 -121q0 -62 -19 -116.5t-58 -99.5t-105.5 -71.5t-154.5 -26.5h-364zM232 111h182q61 0 109 8t79 23t52 33.5t32 42.5t15 46.5t4 49.5q0 99 -63 150.5t-208 51.5h-202v-405zM1016 0v1062h112v-1062h-112z " />
<glyph unicode="&#x44c;" horiz-adv-x="872" d="M125 0v1062h109v-432h216q99 0 173 -25.5t116.5 -70t63 -99.5t20.5 -121q0 -62 -18.5 -116t-57 -99.5t-105.5 -72t-156 -26.5h-361zM234 111h182q73 0 127 12.5t85 31.5t50 47t25 54t6 58q0 202 -273 202h-202v-405z" />
<glyph unicode="&#x44d;" horiz-adv-x="854" d="M57 341q25 3 109 18q20 -135 83 -204t165 -69q240 0 270 400h-320v114h320q-18 170 -87 271.5t-183 101.5q-187 0 -232 -221l-109 21q21 140 110.5 227t225.5 87q178 0 283.5 -149.5t105.5 -407.5q0 -250 -102.5 -402.5t-270.5 -152.5q-154 0 -247 99.5t-121 266.5z" />
<glyph unicode="&#x44e;" horiz-adv-x="1255" d="M125 0v1062h111v-462h225q45 487 371 487q171 0 271 -148.5t100 -404.5q0 -267 -97 -413t-276 -146q-163 0 -257.5 132t-111.5 379h-225v-486h-111zM575 548q0 -230 66.5 -346t185.5 -116q54 0 99 22.5t82.5 71.5t59 136.5t21.5 206.5q0 445 -255 445q-124 0 -191.5 -110 t-67.5 -310z" />
<glyph unicode="&#x44f;" horiz-adv-x="909" d="M55 0l147 266q73 127 144 148v36q-88 16 -145.5 64t-80 108.5t-22.5 136.5q0 142 80 222.5t222 80.5h398v-1062h-111v430h-110q-28 0 -52 -4t-46.5 -16.5t-39 -23.5t-37.5 -37t-35 -45t-38 -59.5t-39 -68t-45.5 -83.5t-51.5 -93h-138zM211 755q0 -110 64.5 -162 t222.5 -52h189v407h-239q-133 0 -185 -52.5t-52 -140.5z" />
<glyph unicode="&#x451;" d="M73 521q0 271 111.5 418.5t288.5 147.5q173 0 282 -145t109 -410v-27h-678q10 -209 91 -314t205 -105q180 0 255 225l115 -18q-39 -156 -134.5 -237t-237.5 -81q-178 0 -296 139h2q-113 140 -113 407zM196 616h550q-15 181 -86.5 269t-186.5 88q-114 0 -190.5 -94.5 t-86.5 -262.5zM259 1319v170h118v-170h-118zM575 1319v170h121v-170h-121z" />
<glyph unicode="&#x10a0;" horiz-adv-x="1155" d="M136 441v70q0 97 110 262q8 -4 93 -46q-62 -115 -62 -216v-77q0 -166 67.5 -249t235.5 -83q297 0 297 332v157q0 245 -229 471q-97 94 -159 211t-62 211v98h130v-98q0 -190 234 -400q230 -209 230 -493v-157q0 -206 -121.5 -324.5t-319.5 -118.5q-192 0 -318 121.5 t-126 328.5z" />
<glyph unicode="&#x10a1;" horiz-adv-x="1155" d="M136 416v232q0 94 37 178t95.5 140t129 88.5t138.5 32.5q37 84 37 200q0 23 -18 45.5t-45.5 40t-59.5 41.5t-60 48t-47 61.5t-20 81.5h138q1 -39 27.5 -73.5t63 -61t73 -52t62 -57t25.5 -65.5q0 -115 -50 -209q45 0 105.5 -33.5t117.5 -89.5t96.5 -141t39.5 -175v-234 q0 -75 -34 -151t-92 -136.5t-142 -98t-176 -37.5q-125 0 -228 62.5t-158 159.5t-55 203zM277 441q0 -150 81.5 -244.5t218.5 -94.5q140 0 220 91t80 234v214q0 152 -85.5 246.5t-214.5 94.5q-140 0 -220 -94t-80 -254v-193z" />
<glyph unicode="&#x10a2;" horiz-adv-x="1302" d="M136 452v125q7 150 84 262t199 168.5t270 56.5q113 116 113 227q0 198 -211 198q-113 0 -168 -40t-55 -112v-132h-122v132q0 107 98.5 187.5t246.5 80.5q161 0 247.5 -83t86.5 -213q0 -127 -113 -254q30 -5 72 -26t92 -61t92 -90.5t70 -122.5t28 -150v-153 q0 -86 -37 -168t-102.5 -147.5t-166.5 -105.5t-219 -40q-131 0 -249 67.5t-187 174.5t-69 219zM277 468q0 -94 44 -177t130 -136t197 -53q99 0 174 30t117.5 82t63 115.5t20.5 138.5v134q0 132 -98 240t-227 108h-73q-155 0 -251.5 -97.5t-96.5 -281.5v-103z" />
<glyph unicode="&#x10a3;" horiz-adv-x="1722" d="M136 1030v150q0 86 26 162t76 135t130 93.5t180 34.5q162 0 314 -159q108 159 320 159q201 0 303 -134.5t102 -365.5v-93q0 -248 -102 -374.5t-303 -126.5q-192 0 -301.5 134.5t-109.5 375.5v79q0 102 45 269q-48 69 -109 94.5t-159 25.5q-131 0 -202 -81t-71 -228v-143 q0 -94 16.5 -179.5t59.5 -177.5t111 -168t178 -143.5t253 -111.5q176 -55 262.5 -120.5t90.5 -147.5h-171q-14 148 -395 220q-169 -3 -325 -107l-50 123q117 28 268 43q-437 333 -437 762zM912 1023q0 -210 63.5 -304t206.5 -94q140 0 202 94t62 297v89q0 210 -60.5 297 t-203.5 87q-148 0 -209 -82t-61 -298v-86z" />
<glyph unicode="&#x10a4;" horiz-adv-x="1191" d="M139 373q0 173 63 320h132q-57 -143 -57 -322q0 -129 76 -199t227 -70q130 0 215 66t85 187v904q0 100 -69.5 165t-189.5 65q-119 0 -199.5 -62.5t-80.5 -169.5q0 -76 25 -193h-114q-38 108 -38 193q0 154 111.5 251t281.5 97q183 0 299.5 -95t116.5 -251v-909 q0 -168 -122 -263.5t-321 -95.5q-191 0 -316 111.5t-125 270.5z" />
<glyph unicode="&#x10a5;" horiz-adv-x="1159" d="M139 352v84q0 95 63 228h121q-46 -140 -46 -237v-61q0 -127 84 -195.5t219 -68.5q147 0 223.5 66t76.5 191v175q0 236 -175 266h-139v114h139q157 0 157 291v50q0 113 -70.5 173.5t-198.5 60.5q-120 0 -195 -67.5t-75 -137.5v-36q0 -62 13 -127q-22 0 -63 -1.5t-64 -1.5 q-25 60 -25 123v50q0 85 60.5 158t154.5 114.5t194 41.5q95 0 174.5 -30.5t129 -80.5t76.5 -109.5t27 -120.5v-71q0 -208 -200 -338q223 -77 223 -321v-175q0 -151 -122 -259.5t-321 -108.5q-188 0 -314.5 104.5t-126.5 256.5z" />
<glyph unicode="&#x10a6;" horiz-adv-x="1273" d="M91 1278v50q0 118 95 197.5t264 79.5q181 0 276 -74t95 -203v-55q0 -121 -169 -243q117 0 211 -33.5t153.5 -92t91 -134t31.5 -161.5v-175q0 -204 -125 -323.5t-341 -119.5q-208 0 -333.5 119t-125.5 324v168q0 242 213 357q-336 40 -336 319zM218 1241 q0 -91 65.5 -139.5t175.5 -48.5q102 0 165 55t63 133v82q0 70 -68.5 118t-163.5 48q-111 0 -174 -42.5t-63 -127.5v-78zM348 457q0 -157 88 -256t237 -99q154 0 240.5 100t86.5 266v98q0 162 -86 256t-241 94q-148 0 -236.5 -82t-88.5 -250v-127z" />
<glyph unicode="&#x10a7;" horiz-adv-x="1787" d="M136 602v435q0 152 32 264t91.5 177.5t135 96t169.5 30.5q208 0 329 -155q145 155 332 155q214 0 321 -140.5t107 -457.5v-159q0 -279 -85 -497.5t-243 -359.5h-150q339 315 339 846v238q0 199 -61 303v-3q-62 114 -260 114q-149 0 -261 -109q66 -87 66 -184v-623 q0 -264 -115.5 -423t-318.5 -159q-202 0 -315 150.5t-113 460.5zM275 618q0 -198 32.5 -312t93.5 -159t163 -45q295 0 295 464v630q0 136 -79 214.5t-216 78.5q-147 0 -218 -122t-71 -371v-378z" />
<glyph unicode="&#x10a8;" horiz-adv-x="1155" d="M136 859v189q0 273 122 415t322 142q214 0 327.5 -140.5t113.5 -425.5v-173q0 -402 -175 -855h-155q186 448 186 848v180q0 232 -74 341t-223 109q-159 0 -231 -108.5t-72 -341.5v-180q0 -403 191 -848h-152q-180 450 -180 848z" />
<glyph unicode="&#x10a9;" horiz-adv-x="1155" d="M136 346v95q0 130 64 227h121q-44 -145 -44 -247v-50q0 -111 84 -190t216 -79q141 0 220.5 77t79.5 235v104q0 142 -70 241h2q-65 103 -182 103h-206v116h200q100 0 158 55.5t58 153.5v79q0 188 -205 223v114q170 -43 258 -129t88 -210v-48q0 -211 -244 -295 q287 -89 287 -403v-104q0 -190 -125 -306.5t-319 -116.5q-182 0 -311.5 109t-129.5 246z" />
<glyph unicode="&#x10aa;" horiz-adv-x="2269" d="M136 1059v78q0 200 101.5 328.5t285.5 128.5q234 0 332 -246q77 257 284 257q204 0 289 -241q100 230 322 230q154 0 269.5 -114.5t115.5 -258.5v-109q0 -141 -74 -278.5t-206 -253.5h-134q277 236 277 541v88q0 103 -72 186t-173 83q-59 0 -102 -13t-80 -45t-56 -94 t-19 -153v-234h-127v232q0 167 -57 242.5t-173 75.5q-106 0 -170 -75t-64 -234v-241h-125v245q0 114 -30 179.5t-84 90t-143 24.5q-111 0 -178.5 -89.5t-67.5 -258.5v-82q0 -113 48.5 -221.5t133.5 -197t197 -162t241 -125t265 -78.5q351 -73 477 -250h-202 q-203 170 -498 170q-100 0 -200.5 -29t-181.5 -75q-18 21 -49 64.5t-35 48.5q113 32 320 68q-657 350 -657 798z" />
<glyph unicode="&#x10ab;" horiz-adv-x="1189" d="M136 441v223q0 186 130 318t316 132q206 0 298 -180l11 3v356q0 81 -83.5 138.5t-209.5 57.5q-128 0 -200.5 -44.5t-72.5 -110.5v-68h-139v68q0 67 57.5 130t154 102t202.5 39q103 0 199.5 -39.5t159 -112.5t62.5 -160v-879q0 -188 -127.5 -305.5t-313.5 -117.5 q-196 0 -320 120t-124 330zM277 441q0 -163 83 -251t220 -88q130 0 213.5 86.5t83.5 252.5v227q0 169 -80.5 252t-216.5 83q-122 0 -212.5 -95t-90.5 -244v-223z" />
<glyph unicode="&#x10ac;" horiz-adv-x="1189" d="M170 423v884q0 134 72 205.5t183 71.5q37 0 176 -25t176 -25q114 0 246 64v-91q-135 -79 -261 -79q-36 0 -135.5 20.5t-149.5 20.5q-98 0 -141 -37t-43 -132v-375q138 189 319 189q193 0 318 -121.5t125 -308.5v-263q0 -204 -119.5 -317t-321.5 -113q-123 0 -222.5 49.5 t-160.5 149.5t-61 233zM309 423q0 -151 83.5 -236t219.5 -85q149 0 226.5 86t77.5 248v239q0 159 -81 243.5t-221 84.5q-160 0 -232.5 -79.5t-72.5 -250.5v-250z" />
<glyph unicode="&#x10ad;" horiz-adv-x="1806" d="M136 909v103q0 131 22 234.5t69.5 186t130.5 127.5t197 45q241 0 357 -252q96 252 345 252q90 0 161 -30.5t117.5 -82t77.5 -124.5t44.5 -154.5t13.5 -174.5v-130q0 -529 -348 -898h-173q382 375 382 910v102q0 118 -12 199.5t-42 144t-84.5 92.5t-136.5 30 q-143 0 -212.5 -77.5t-69.5 -243.5v-584h-141v584q0 166 -68 243.5t-211 77.5q-150 0 -215 -117.5t-65 -359.5v-98q0 -512 391 -900h-170q-360 371 -360 895z" />
<glyph unicode="&#x10ae;" horiz-adv-x="1159" d="M139 375v121q0 73 63 168h116q-41 -125 -41 -193v-60q0 -119 85.5 -214t217.5 -95q157 0 228.5 93t71.5 278v100q0 122 -64.5 205.5t-167.5 83.5h-157v116h157q84 0 131.5 51t47.5 149v36q0 50 -56.5 90t-174.5 74q-220 62 -223 227h136q4 -59 63.5 -104.5t170.5 -70.5 q223 -54 223 -207v-48q0 -148 -202 -259q259 -129 259 -339v-120q0 -210 -119.5 -338t-323.5 -128q-81 0 -161 30.5t-141.5 82t-100 123t-38.5 148.5z" />
<glyph unicode="&#x10af;" horiz-adv-x="1189" d="M136 366v48q0 55 23 116h132q-14 -81 -14 -114v-57q0 -81 47 -141t116.5 -88t148.5 -28q131 0 209.5 81.5t78.5 202.5v1101l-506 -109q126 -47 190 -118.5t64 -188.5q0 -314 -489 -314v114q189 2 276.5 42t87.5 140q0 139 -94 212.5t-270 75.5v71l885 193v-1228 q0 -170 -124 -278t-308 -108q-210 0 -331.5 93.5t-121.5 281.5z" />
<glyph unicode="&#x10b0;" horiz-adv-x="1806" d="M136 650v50q0 150 38 281t124.5 247t216 198.5t322.5 130.5t434 48v-116q-711 0 -953 -434q159 59 237 59q243 0 352 -259q133 259 350 259q112 0 205 -48.5t151 -144.5t58 -221v-54q0 -361 -309 -632h-155q332 298 332 629v57q0 135 -84.5 224.5t-197.5 89.5 q-123 0 -203.5 -86.5t-80.5 -247.5v-228h-139v228q0 83 -24.5 148.5t-65 105t-89 60t-100.5 20.5q-127 0 -203.5 -87t-76.5 -227v-63q0 -316 332 -626h-173q-145 136 -221.5 298.5t-76.5 340.5z" />
<glyph unicode="&#x10b1;" horiz-adv-x="1189" d="M170 482v1123h139v-1123q0 -182 78 -281t225 -99q141 0 222.5 105.5t81.5 276.5v59q0 158 -136 294q-132 128 -132 231q0 98 50 169q51 -17 141 -39q-59 -62 -59 -130q0 -105 138 -229q137 -123 137 -275v-98q0 -202 -123 -338.5t-320 -136.5q-200 0 -321 122.5 t-121 368.5z" />
<glyph unicode="&#x10b2;" horiz-adv-x="1460" d="M136 552v314q0 136 48.5 251t127.5 189.5t177.5 116t201.5 41.5l-64 141h198l-63 -141q114 0 215.5 -40t179 -114t123 -189t45.5 -255v-314q0 -157 -82.5 -287t-218.5 -202t-292 -72q-164 0 -300 71.5t-216 200.5t-80 289zM277 552q0 -190 123 -320t332 -130 q108 0 196 37t144 100t86.5 143.5t30.5 169.5v314q0 257 -104.5 383t-318.5 126l36 -709h-154l39 709q-192 0 -301 -129t-109 -380v-314z" />
<glyph unicode="&#x10b3;" horiz-adv-x="1357" d="M136 1464v125q95 -75 148 -75q27 0 77.5 42t81.5 42q141 0 205 -111q114 111 225 111q77 0 150 -29.5t119.5 -80.5t46.5 -108v-939q0 -215 -107 -332.5t-307 -117.5q-211 0 -337.5 114t-126.5 309v97q0 107 48 187h127q-34 -118 -34 -232v-55q0 -141 88.5 -225t234.5 -84 q147 0 212.5 84.5t65.5 261.5v932q0 46 -51.5 81t-137.5 35q-164 0 -164 -116v-384h-104v384q0 116 -137 116q-63 0 -102 -59h2q-39 -53 -82 -53q-29 0 -68.5 23t-72.5 57z" />
<glyph unicode="&#x10b4;" horiz-adv-x="1771" d="M136 1059v82q0 211 104.5 337.5t314.5 126.5q190 0 334 -168q137 168 334 168q185 0 299.5 -109t114.5 -262v-97q0 -142 -67.5 -224t-232.5 -129v-13q152 -29 213.5 -113.5t61.5 -211.5v-69q0 -181 -149 -283.5t-408 -102.5q-297 0 -435.5 87.5t-139.5 294.5h136 q1 -70 28.5 -120.5t67.5 -79t101.5 -45t116 -21.5t125.5 -5q416 0 416 275v57q0 135 -59.5 213t-152.5 78h-113v109h113q31 0 62.5 8.5t64 30t57 53.5t40 83.5t15.5 115.5v98q0 135 -67.5 200.5t-207.5 65.5q-158 0 -296 -125q48 -105 48 -216v-89q0 -195 -118.5 -320 t-301.5 -125q-177 0 -298 126.5t-121 318.5zM275 1059q0 -174 69 -251.5t211 -77.5q140 0 209.5 78t69.5 251v75q0 187 -63.5 271t-215.5 84q-155 0 -217.5 -78t-62.5 -270v-82z" />
<glyph unicode="&#x10b5;" horiz-adv-x="1189" d="M136 359v21q0 90 44 168h136q-39 -81 -39 -175v-25q0 -246 300 -246q141 0 220.5 63t79.5 171v491q0 63 -52.5 145t-134.5 142.5t-154 60.5q-107 0 -156.5 -48t-49.5 -124q0 -49 18 -139h-118q-25 72 -25 139q0 128 88 204.5t243 76.5q192 0 355 -241v460h-216v102h346 v-1257q0 -162 -123 -259.5t-321 -97.5q-186 0 -313.5 100t-127.5 268z" />
<glyph unicode="&#x10b6;" horiz-adv-x="1681" d="M136 1059v87q0 85 25.5 166t72 147t120.5 106t164 40q226 0 321 -282q85 282 320 282q182 0 284.5 -103t102.5 -290v-103q0 -128 -48 -258.5t-136 -245.5h-125q170 233 170 520v82q0 143 -60.5 212.5t-184.5 69.5q-40 0 -64 -2t-54 -9.5t-48 -22.5t-36.5 -42t-28 -66.5 t-16 -97t-6.5 -133.5v-232h-138v232q0 73 -7 130.5t-18.5 96.5t-30.5 66.5t-38 43t-47 24t-51 10.5t-56 2q-117 0 -182.5 -91t-65.5 -252v-87q0 -153 54.5 -291.5t146.5 -241t205 -176t237 -111.5q248 -76 278 -250h-171q-38 89 -119.5 137.5t-200.5 48.5q-164 0 -289 -91 q-10 19 -29.5 59t-31.5 62q84 38 272 61q-491 321 -491 793z" />
<glyph unicode="&#x10b7;" horiz-adv-x="1191" d="M136 348q0 85 34 175h135q-28 -86 -28 -205q0 -89 86.5 -152.5t216.5 -63.5q157 0 228.5 69t71.5 250v477q-98 -173 -298 -173q-105 0 -198.5 50t-153.5 145.5t-60 213.5v116q0 151 148 332h155q-175 -212 -175 -361v-87q0 -120 85.5 -211t198.5 -91q145 0 221.5 83.5 t76.5 205.5v461h143v-1182q0 -204 -107.5 -306.5t-335.5 -102.5q-178 0 -312 86v-2q-132 92 -132 273z" />
<glyph unicode="&#x10b8;" horiz-adv-x="1271" d="M91 1205v166q0 92 69 163t154 71q79 0 149 -40.5t108 -132.5q93 173 238 173q153 0 223.5 -81.5t70.5 -280.5v-802q0 -128 -64.5 -232.5t-170 -161t-229.5 -56.5q-83 0 -164.5 32.5t-149 90t-109 147.5t-41.5 196v145q0 194 134.5 327t329.5 133q226 0 323 -175l11 2v350 q0 71 -6.5 118t-19 76.5t-36 44.5t-50.5 20t-70 5q-78 0 -119.5 -48.5t-41.5 -133.5v-50h-107v50q0 90 -38 136t-128 46q-75 0 -116 -33t-41 -99v-166h-109zM316 461q0 -149 96.5 -254t226.5 -105q145 0 236 103t91 236v161q0 346 -325 346q-134 0 -229.5 -108.5 t-95.5 -259.5v-119z" />
<glyph unicode="&#x10b9;" horiz-adv-x="1189" d="M170 14v1318q0 121 100.5 197t243.5 76q165 0 269 -70t104 -187q0 -83 -55 -164l-105 19q35 68 35 143q0 143 -251 143q-210 0 -213 -173v-473q136 187 314 187q213 0 328 -115t115 -335v-71q0 -251 -214 -495h-173q248 226 248 502v64q0 73 -17.5 133t-53 105.5t-95 71 t-138.5 26.5q-129 -4 -219.5 -87.5t-94.5 -207.5v-607h-128z" />
<glyph unicode="&#x10ba;" horiz-adv-x="1310" d="M136 552v410q0 188 39.5 347.5t110.5 272.5h128q-137 -269 -137 -620v-410q0 -115 53.5 -219t144.5 -167.5t193 -63.5q152 0 259 105t107 261v34q0 287 -216 287h-156v111h156q94 0 155 58.5t61 166.5q0 41 -24 79t-60 66.5t-78.5 63.5t-79 67.5t-61.5 80t-26 100.5h116 q2 -53 47.5 -105t131.5 -97q175 -95 175 -250q0 -69 -19 -118.5t-57 -80t-81 -48.5t-104 -31v-13q148 -37 204.5 -116.5t56.5 -215.5v-39q0 -129 -65 -238t-182 -174t-260 -65q-156 0 -279 78.5t-188 205.5t-65 277z" />
<glyph unicode="&#x10bb;" horiz-adv-x="1189" d="M136 446v227q0 95 24 172t74 139t137.5 96t205.5 34q157 0 300 -164v655h144v-1178q0 -190 -122.5 -313t-321.5 -123q-200 0 -320.5 125t-120.5 330zM277 427q0 -158 75.5 -241.5t224.5 -83.5q136 0 218 87t82 245v230q0 135 -81.5 237t-218.5 102q-145 0 -222.5 -85.5 t-77.5 -253.5v-237z" />
<glyph unicode="&#x10bc;" horiz-adv-x="1241" d="M136 441v802q0 198 72.5 280t223.5 82q146 0 239 -173q79 173 256 173q85 0 154 -69.5t69 -164.5v-166h-104v166q0 65 -42.5 98.5t-116.5 33.5q-89 0 -129 -46.5t-40 -135.5v-50h-109v50q0 85 -41 133.5t-116 48.5q-46 0 -73.5 -5t-51.5 -19.5t-35.5 -44.5t-17.5 -76.5 t-6 -118.5v-350l12 -2q89 175 320 175q197 0 330.5 -133t133.5 -327v-145q0 -103 -40 -192t-105.5 -148t-148.5 -92.5t-170 -33.5q-120 0 -225.5 56.5t-172 161t-66.5 232.5zM277 441q0 -64 22.5 -124t63 -108t102.5 -77.5t135 -29.5q132 0 229.5 106t97.5 253v119 q0 151 -94 259.5t-235 108.5q-321 0 -321 -346v-161z" />
<glyph unicode="&#x10bd;" horiz-adv-x="1159" d="M136 416q0 96 53 193h122q-31 -86 -31 -198q0 -74 34 -143.5t104.5 -117.5t161.5 -48q143 0 221.5 75t78.5 214v36q0 118 -118 232q-116 113 -116 396v98h-178q-57 0 -84 -29.5t-27 -89.5q0 -70 32.5 -102t110.5 -32h43v-95h-68q-85 0 -157 45v-2q-68 45 -68 180 q0 56 19.5 99t52.5 67.5t71.5 36.5t81.5 12h171v260h-189v102h305v-362h204v-90h-204v-94q0 -281 131 -384q130 -103 130 -257v-27q0 -177 -120.5 -288.5t-322.5 -111.5q-126 0 -229 59.5t-159 156.5t-56 209z" />
<glyph unicode="&#x10be;" horiz-adv-x="1189" d="M170 391v1214h139v-657q157 166 303 166q112 0 198.5 -34.5t139 -95t79 -137.5t26.5 -167v-289q0 -79 -29 -150.5t-83.5 -127.5t-140 -89t-190.5 -33q-112 0 -213.5 52.5t-165 145.5t-63.5 202zM309 427q0 -150 85 -237.5t218 -87.5q136 0 220 86.5t84 238.5v223 q0 159 -81.5 256t-222.5 97q-143 0 -223 -86.5t-80 -259.5v-230z" />
<glyph unicode="&#x10bf;" horiz-adv-x="1159" d="M139 398v95q0 111 50 228h127q-39 -156 -39 -228v-88q0 -135 87.5 -219t217.5 -84q141 0 219.5 75t78.5 225v84q0 172 -193 328q-186 151 -210 439l-338 43v113l338 -45l32 241h114l-32 -250l387 -43v-116l-382 52q24 -277 227 -423q200 -141 200 -339v-81 q0 -83 -30.5 -158t-86.5 -132t-140.5 -90.5t-185.5 -33.5q-115 0 -217 56.5t-163 151t-61 199.5z" />
<glyph unicode="&#x10c0;" horiz-adv-x="1155" d="M136 480h141q0 -92 13 -157t45.5 -117t92.5 -78t149 -26q144 0 222 59t78 171q0 273 -177 273h-179v109h179q75 0 111.5 34.5t36.5 128.5q0 74 -41.5 110t-138.5 36h-182v114h182q68 0 108 47t40 123q0 49 -4.5 70t-29 49t-80 38t-155 17.5t-256.5 7.5v105q258 0 402 -29 t202 -88.5t58 -162.5q0 -136 -162 -236q196 -69 196 -198q0 -151 -191 -230q225 -79 225 -291q0 -183 -119 -275.5t-325 -92.5q-438 0 -441 489z" />
<glyph unicode="&#x10c1;" horiz-adv-x="1155" d="M136 425v1180h128v-1187q2 -145 85.5 -230.5t230.5 -85.5q145 0 223.5 65t78.5 194q0 118 -43 176.5t-139 58.5h-113v104h113q89 0 135.5 44t46.5 122q0 63 -55 110t-161 47h-79v114h79q107 0 161.5 53t54.5 138q0 158 -295 161v116q202 0 318 -69.5t116 -205.5 q0 -177 -216 -243v-14q216 -38 216 -209q0 -175 -232 -221q232 -79 232 -282q0 -177 -116.5 -273.5t-327.5 -96.5q-200 0 -320.5 113t-120.5 321z" />
<glyph unicode="&#x10c2;" horiz-adv-x="1155" d="M136 52q220 0 371 103q-371 178 -371 482v443q0 104 15 186t44.5 139t68 96.5t90.5 62t106 32t120 9.5q104 0 181 -24.5t137.5 -82t91.5 -162.5t31 -256v-443q0 -307 -357 -482q121 -100 357 -103v-111q-206 0 -444 159q-257 -159 -441 -159v111zM277 634 q0 -254 303 -438q297 183 297 441v443q0 215 -73 312t-224 97q-147 0 -225 -104t-78 -348v-403z" />
<glyph unicode="&#x10c3;" horiz-adv-x="1155" d="M136 346v95q0 118 148 234l71 -77q-78 -75 -78 -177v-50q0 -47 17 -92.5t50.5 -86t94 -65.5t138.5 -25q49 0 91.5 9t81.5 31.5t66.5 57.5t44 89.5t16.5 124.5v104q0 152 -75.5 253.5t-174.5 101.5h-206v116h200q108 0 182 128t74 352h-568v-189h-141v302h853v-173 q0 -302 -280 -479q280 -90 280 -412v-104q0 -184 -120.5 -303.5t-323.5 -119.5q-116 0 -217.5 47.5t-162.5 129.5t-61 178z" />
<glyph unicode="&#x10c4;" horiz-adv-x="1155" d="M136 391q0 110 119 234l88 -79q-66 -91 -66 -160q0 -121 85 -202.5t218 -81.5q152 0 224.5 70.5t72.5 173.5v79q0 111 -51 163.5t-171 52.5h-68v116h68q113 0 167.5 105.5t54.5 326.5q-189 -146 -384 -146q-181 0 -269 74t-88 197q0 119 148.5 205t388.5 86v-116 q-218 0 -307 -39.5t-89 -142.5q0 -79 50 -126t157 -47q206 0 537 250q0 -614 -271 -679q271 -92 271 -282v-64q0 -174 -119 -271t-322 -97q-102 0 -187.5 33.5t-140.5 89.5t-85.5 127.5t-30.5 149.5z" />
<glyph unicode="&#x10c5;" horiz-adv-x="1241" d="M136 346q0 66 27 127.5t79.5 113t140 82.5t197.5 31h297v184h-297q-111 0 -198 28t-139.5 77t-79.5 110.5t-27 132.5q0 157 122 265t322 108q190 0 315.5 -102t125.5 -280v-227h129v-112h-129v-184h129v-118h-129v-236q0 -91 -37 -161t-100.5 -111.5t-140 -62 t-163.5 -20.5q-204 0 -324 99t-120 256zM277 339q0 -102 85 -169.5t218 -67.5q297 0 297 244v236h-297q-166 0 -234.5 -61.5t-68.5 -181.5zM277 1232q0 -108 75.5 -172t202.5 -64h322v227q0 129 -77 197.5t-220 68.5q-149 0 -226 -69.5t-77 -187.5z" />
<glyph unicode="&#x10c6;" horiz-adv-x="1644" d="M136 784v432q0 192 93 296t287 104q104 0 179 -46t130 -142q90 188 307 188q89 0 154.5 -18.5t117.5 -62t78.5 -122t26.5 -190.5v-439q0 -181 -107.5 -287t-267.5 -106q-136 0 -247 111v-172q0 -336 -430 -339v107q153 0 226.5 56t73.5 173v882q0 166 -54.5 228.5 t-186.5 62.5q-125 0 -182 -60.5t-57 -216.5v-439q0 -87 20.5 -147t59 -90t80 -42t95.5 -12v-102q-81 0 -151 23.5t-125.5 69.5t-87.5 123t-32 177zM887 784q0 -83 19.5 -140t56.5 -85.5t76.5 -40t92.5 -13.5q136 1 188.5 70.5t52.5 208.5v425q0 87 -18.5 146.5t-54 90 t-75.5 42.5t-93 12q-140 0 -192.5 -60.5t-52.5 -223.5v-432z" />
<glyph unicode="&#x10d0;" horiz-adv-x="1155" d="M136 441v70q0 97 110 262q8 -4 93 -46q-62 -115 -62 -216v-77q0 -166 67.5 -249t235.5 -83q297 0 297 332v157q0 245 -229 471q-97 94 -159 211t-62 211v98h130v-98q0 -190 234 -400q230 -209 230 -493v-157q0 -206 -121.5 -324.5t-319.5 -118.5q-192 0 -318 121.5 t-126 328.5z" />
<glyph unicode="&#x10d1;" horiz-adv-x="1155" d="M136 416v232q0 94 37 178t95.5 140t129 88.5t138.5 32.5q37 84 37 200q0 23 -18 45.5t-45.5 40t-59.5 41.5t-60 48t-47 61.5t-20 81.5h138q1 -39 27.5 -73.5t63 -61t73 -52t62 -57t25.5 -65.5q0 -115 -50 -209q45 0 105.5 -33.5t117.5 -89.5t96.5 -141t39.5 -175v-234 q0 -75 -34 -151t-92 -136.5t-142 -98t-176 -37.5q-125 0 -228 62.5t-158 159.5t-55 203zM277 441q0 -150 81.5 -244.5t218.5 -94.5q140 0 220 91t80 234v214q0 152 -85.5 246.5t-214.5 94.5q-140 0 -220 -94t-80 -254v-193z" />
<glyph unicode="&#x10d2;" horiz-adv-x="1302" d="M136 452v125q7 150 84 262t199 168.5t270 56.5q113 116 113 227q0 198 -211 198q-113 0 -168 -40t-55 -112v-132h-122v132q0 107 98.5 187.5t246.5 80.5q161 0 247.5 -83t86.5 -213q0 -127 -113 -254q30 -5 72 -26t92 -61t92 -90.5t70 -122.5t28 -150v-153 q0 -86 -37 -168t-102.5 -147.5t-166.5 -105.5t-219 -40q-131 0 -249 67.5t-187 174.5t-69 219zM277 468q0 -94 44 -177t130 -136t197 -53q99 0 174 30t117.5 82t63 115.5t20.5 138.5v134q0 132 -98 240t-227 108h-73q-155 0 -251.5 -97.5t-96.5 -281.5v-103z" />
<glyph unicode="&#x10d3;" horiz-adv-x="1722" d="M136 1030v150q0 86 26 162t76 135t130 93.5t180 34.5q162 0 314 -159q108 159 320 159q201 0 303 -134.5t102 -365.5v-93q0 -248 -102 -374.5t-303 -126.5q-192 0 -301.5 134.5t-109.5 375.5v79q0 102 45 269q-48 69 -109 94.5t-159 25.5q-131 0 -202 -81t-71 -228v-143 q0 -94 16.5 -179.5t59.5 -177.5t111 -168t178 -143.5t253 -111.5q176 -55 262.5 -120.5t90.5 -147.5h-171q-14 148 -395 220q-169 -3 -325 -107l-50 123q117 28 268 43q-437 333 -437 762zM912 1023q0 -210 63.5 -304t206.5 -94q140 0 202 94t62 297v89q0 210 -60.5 297 t-203.5 87q-148 0 -209 -82t-61 -298v-86z" />
<glyph unicode="&#x10d4;" horiz-adv-x="1191" d="M139 373q0 173 63 320h132q-57 -143 -57 -322q0 -129 76 -199t227 -70q130 0 215 66t85 187v904q0 100 -69.5 165t-189.5 65q-119 0 -199.5 -62.5t-80.5 -169.5q0 -76 25 -193h-114q-38 108 -38 193q0 154 111.5 251t281.5 97q183 0 299.5 -95t116.5 -251v-909 q0 -168 -122 -263.5t-321 -95.5q-191 0 -316 111.5t-125 270.5z" />
<glyph unicode="&#x10d5;" horiz-adv-x="1159" d="M139 352v84q0 95 63 228h121q-46 -140 -46 -237v-61q0 -127 84 -195.5t219 -68.5q147 0 223.5 66t76.5 191v175q0 236 -175 266h-139v114h139q157 0 157 291v50q0 113 -70.5 173.5t-198.5 60.5q-120 0 -195 -67.5t-75 -137.5v-36q0 -62 13 -127q-22 0 -63 -1.5t-64 -1.5 q-25 60 -25 123v50q0 85 60.5 158t154.5 114.5t194 41.5q95 0 174.5 -30.5t129 -80.5t76.5 -109.5t27 -120.5v-71q0 -208 -200 -338q223 -77 223 -321v-175q0 -151 -122 -259.5t-321 -108.5q-188 0 -314.5 104.5t-126.5 256.5z" />
<glyph unicode="&#x10d6;" horiz-adv-x="1273" d="M91 1278v50q0 118 95 197.5t264 79.5q181 0 276 -74t95 -203v-55q0 -121 -169 -243q117 0 211 -33.5t153.5 -92t91 -134t31.5 -161.5v-175q0 -204 -125 -323.5t-341 -119.5q-208 0 -333.5 119t-125.5 324v168q0 242 213 357q-336 40 -336 319zM218 1241 q0 -91 65.5 -139.5t175.5 -48.5q102 0 165 55t63 133v82q0 70 -68.5 118t-163.5 48q-111 0 -174 -42.5t-63 -127.5v-78zM348 457q0 -157 88 -256t237 -99q154 0 240.5 100t86.5 266v98q0 162 -86 256t-241 94q-148 0 -236.5 -82t-88.5 -250v-127z" />
<glyph unicode="&#x10d7;" horiz-adv-x="1787" d="M136 602v435q0 152 32 264t91.5 177.5t135 96t169.5 30.5q208 0 329 -155q145 155 332 155q214 0 321 -140.5t107 -457.5v-159q0 -279 -85 -497.5t-243 -359.5h-150q339 315 339 846v238q0 199 -61 303v-3q-62 114 -260 114q-149 0 -261 -109q66 -87 66 -184v-623 q0 -264 -115.5 -423t-318.5 -159q-202 0 -315 150.5t-113 460.5zM275 618q0 -198 32.5 -312t93.5 -159t163 -45q295 0 295 464v630q0 136 -79 214.5t-216 78.5q-147 0 -218 -122t-71 -371v-378z" />
<glyph unicode="&#x10d8;" horiz-adv-x="1155" d="M136 859v189q0 273 122 415t322 142q214 0 327.5 -140.5t113.5 -425.5v-173q0 -402 -175 -855h-155q186 448 186 848v180q0 232 -74 341t-223 109q-159 0 -231 -108.5t-72 -341.5v-180q0 -403 191 -848h-152q-180 450 -180 848z" />
<glyph unicode="&#x10d9;" horiz-adv-x="1155" d="M136 346v95q0 130 64 227h121q-44 -145 -44 -247v-50q0 -111 84 -190t216 -79q141 0 220.5 77t79.5 235v104q0 142 -70 241h2q-65 103 -182 103h-206v116h200q100 0 158 55.5t58 153.5v79q0 188 -205 223v114q170 -43 258 -129t88 -210v-48q0 -211 -244 -295 q287 -89 287 -403v-104q0 -190 -125 -306.5t-319 -116.5q-182 0 -311.5 109t-129.5 246z" />
<glyph unicode="&#x10da;" horiz-adv-x="2269" d="M136 1059v78q0 200 101.5 328.5t285.5 128.5q234 0 332 -246q77 257 284 257q204 0 289 -241q100 230 322 230q154 0 269.5 -114.5t115.5 -258.5v-109q0 -141 -74 -278.5t-206 -253.5h-134q277 236 277 541v88q0 103 -72 186t-173 83q-59 0 -102 -13t-80 -45t-56 -94 t-19 -153v-234h-127v232q0 167 -57 242.5t-173 75.5q-106 0 -170 -75t-64 -234v-241h-125v245q0 114 -30 179.5t-84 90t-143 24.5q-111 0 -178.5 -89.5t-67.5 -258.5v-82q0 -113 48.5 -221.5t133.5 -197t197 -162t241 -125t265 -78.5q351 -73 477 -250h-202 q-203 170 -498 170q-100 0 -200.5 -29t-181.5 -75q-18 21 -49 64.5t-35 48.5q113 32 320 68q-657 350 -657 798z" />
<glyph unicode="&#x10db;" horiz-adv-x="1189" d="M136 441v223q0 186 130 318t316 132q206 0 298 -180l11 3v356q0 81 -83.5 138.5t-209.5 57.5q-128 0 -200.5 -44.5t-72.5 -110.5v-68h-139v68q0 67 57.5 130t154 102t202.5 39q103 0 199.5 -39.5t159 -112.5t62.5 -160v-879q0 -188 -127.5 -305.5t-313.5 -117.5 q-196 0 -320 120t-124 330zM277 441q0 -163 83 -251t220 -88q130 0 213.5 86.5t83.5 252.5v227q0 169 -80.5 252t-216.5 83q-122 0 -212.5 -95t-90.5 -244v-223z" />
<glyph unicode="&#x10dc;" horiz-adv-x="1189" d="M170 423v884q0 134 72 205.5t183 71.5q37 0 176 -25t176 -25q114 0 246 64v-91q-135 -79 -261 -79q-36 0 -135.5 20.5t-149.5 20.5q-98 0 -141 -37t-43 -132v-375q138 189 319 189q193 0 318 -121.5t125 -308.5v-263q0 -204 -119.5 -317t-321.5 -113q-123 0 -222.5 49.5 t-160.5 149.5t-61 233zM309 423q0 -151 83.5 -236t219.5 -85q149 0 226.5 86t77.5 248v239q0 159 -81 243.5t-221 84.5q-160 0 -232.5 -79.5t-72.5 -250.5v-250z" />
<glyph unicode="&#x10dd;" horiz-adv-x="1806" d="M136 909v103q0 131 22 234.5t69.5 186t130.5 127.5t197 45q241 0 357 -252q96 252 345 252q90 0 161 -30.5t117.5 -82t77.5 -124.5t44.5 -154.5t13.5 -174.5v-130q0 -529 -348 -898h-173q382 375 382 910v102q0 118 -12 199.5t-42 144t-84.5 92.5t-136.5 30 q-143 0 -212.5 -77.5t-69.5 -243.5v-584h-141v584q0 166 -68 243.5t-211 77.5q-150 0 -215 -117.5t-65 -359.5v-98q0 -512 391 -900h-170q-360 371 -360 895z" />
<glyph unicode="&#x10de;" horiz-adv-x="1159" d="M139 375v121q0 73 63 168h116q-41 -125 -41 -193v-60q0 -119 85.5 -214t217.5 -95q157 0 228.5 93t71.5 278v100q0 122 -64.5 205.5t-167.5 83.5h-157v116h157q84 0 131.5 51t47.5 149v36q0 50 -56.5 90t-174.5 74q-220 62 -223 227h136q4 -59 63.5 -104.5t170.5 -70.5 q223 -54 223 -207v-48q0 -148 -202 -259q259 -129 259 -339v-120q0 -210 -119.5 -338t-323.5 -128q-81 0 -161 30.5t-141.5 82t-100 123t-38.5 148.5z" />
<glyph unicode="&#x10df;" horiz-adv-x="1189" d="M136 366v48q0 55 23 116h132q-14 -81 -14 -114v-57q0 -81 47 -141t116.5 -88t148.5 -28q131 0 209.5 81.5t78.5 202.5v1101l-506 -109q126 -47 190 -118.5t64 -188.5q0 -314 -489 -314v114q189 2 276.5 42t87.5 140q0 139 -94 212.5t-270 75.5v71l885 193v-1228 q0 -170 -124 -278t-308 -108q-210 0 -331.5 93.5t-121.5 281.5z" />
<glyph unicode="&#x10e0;" horiz-adv-x="1806" d="M136 650v50q0 150 38 281t124.5 247t216 198.5t322.5 130.5t434 48v-116q-711 0 -953 -434q159 59 237 59q243 0 352 -259q133 259 350 259q112 0 205 -48.5t151 -144.5t58 -221v-54q0 -361 -309 -632h-155q332 298 332 629v57q0 135 -84.5 224.5t-197.5 89.5 q-123 0 -203.5 -86.5t-80.5 -247.5v-228h-139v228q0 83 -24.5 148.5t-65 105t-89 60t-100.5 20.5q-127 0 -203.5 -87t-76.5 -227v-63q0 -316 332 -626h-173q-145 136 -221.5 298.5t-76.5 340.5z" />
<glyph unicode="&#x10e1;" horiz-adv-x="1189" d="M170 482v1123h139v-1123q0 -182 78 -281t225 -99q141 0 222.5 105.5t81.5 276.5v59q0 158 -136 294q-132 128 -132 231q0 98 50 169q51 -17 141 -39q-59 -62 -59 -130q0 -105 138 -229q137 -123 137 -275v-98q0 -202 -123 -338.5t-320 -136.5q-200 0 -321 122.5 t-121 368.5z" />
<glyph unicode="&#x10e2;" horiz-adv-x="1460" d="M136 552v314q0 136 48.5 251t127.5 189.5t177.5 116t201.5 41.5l-64 141h198l-63 -141q114 0 215.5 -40t179 -114t123 -189t45.5 -255v-314q0 -157 -82.5 -287t-218.5 -202t-292 -72q-164 0 -300 71.5t-216 200.5t-80 289zM277 552q0 -190 123 -320t332 -130 q108 0 196 37t144 100t86.5 143.5t30.5 169.5v314q0 257 -104.5 383t-318.5 126l36 -709h-154l39 709q-192 0 -301 -129t-109 -380v-314z" />
<glyph unicode="&#x10e3;" horiz-adv-x="1357" d="M136 1464v125q95 -75 148 -75q27 0 77.5 42t81.5 42q141 0 205 -111q114 111 225 111q77 0 150 -29.5t119.5 -80.5t46.5 -108v-939q0 -215 -107 -332.5t-307 -117.5q-211 0 -337.5 114t-126.5 309v97q0 107 48 187h127q-34 -118 -34 -232v-55q0 -141 88.5 -225t234.5 -84 q147 0 212.5 84.5t65.5 261.5v932q0 46 -51.5 81t-137.5 35q-164 0 -164 -116v-384h-104v384q0 116 -137 116q-63 0 -102 -59h2q-39 -53 -82 -53q-29 0 -68.5 23t-72.5 57z" />
<glyph unicode="&#x10e4;" horiz-adv-x="1771" d="M136 1059v82q0 211 104.5 337.5t314.5 126.5q190 0 334 -168q137 168 334 168q185 0 299.5 -109t114.5 -262v-97q0 -142 -67.5 -224t-232.5 -129v-13q152 -29 213.5 -113.5t61.5 -211.5v-69q0 -181 -149 -283.5t-408 -102.5q-297 0 -435.5 87.5t-139.5 294.5h136 q1 -70 28.5 -120.5t67.5 -79t101.5 -45t116 -21.5t125.5 -5q416 0 416 275v57q0 135 -59.5 213t-152.5 78h-113v109h113q31 0 62.5 8.5t64 30t57 53.5t40 83.5t15.5 115.5v98q0 135 -67.5 200.5t-207.5 65.5q-158 0 -296 -125q48 -105 48 -216v-89q0 -195 -118.5 -320 t-301.5 -125q-177 0 -298 126.5t-121 318.5zM275 1059q0 -174 69 -251.5t211 -77.5q140 0 209.5 78t69.5 251v75q0 187 -63.5 271t-215.5 84q-155 0 -217.5 -78t-62.5 -270v-82z" />
<glyph unicode="&#x10e5;" horiz-adv-x="1189" d="M136 359v21q0 90 44 168h136q-39 -81 -39 -175v-25q0 -246 300 -246q141 0 220.5 63t79.5 171v491q0 63 -52.5 145t-134.5 142.5t-154 60.5q-107 0 -156.5 -48t-49.5 -124q0 -49 18 -139h-118q-25 72 -25 139q0 128 88 204.5t243 76.5q192 0 355 -241v460h-216v102h346 v-1257q0 -162 -123 -259.5t-321 -97.5q-186 0 -313.5 100t-127.5 268z" />
<glyph unicode="&#x10e6;" horiz-adv-x="1681" d="M136 1059v87q0 85 25.5 166t72 147t120.5 106t164 40q226 0 321 -282q85 282 320 282q182 0 284.5 -103t102.5 -290v-103q0 -128 -48 -258.5t-136 -245.5h-125q170 233 170 520v82q0 143 -60.5 212.5t-184.5 69.5q-40 0 -64 -2t-54 -9.5t-48 -22.5t-36.5 -42t-28 -66.5 t-16 -97t-6.5 -133.5v-232h-138v232q0 73 -7 130.5t-18.5 96.5t-30.5 66.5t-38 43t-47 24t-51 10.5t-56 2q-117 0 -182.5 -91t-65.5 -252v-87q0 -153 54.5 -291.5t146.5 -241t205 -176t237 -111.5q248 -76 278 -250h-171q-38 89 -119.5 137.5t-200.5 48.5q-164 0 -289 -91 q-10 19 -29.5 59t-31.5 62q84 38 272 61q-491 321 -491 793z" />
<glyph unicode="&#x10e7;" horiz-adv-x="1191" d="M136 348q0 85 34 175h135q-28 -86 -28 -205q0 -89 86.5 -152.5t216.5 -63.5q157 0 228.5 69t71.5 250v477q-98 -173 -298 -173q-105 0 -198.5 50t-153.5 145.5t-60 213.5v116q0 151 148 332h155q-175 -212 -175 -361v-87q0 -120 85.5 -211t198.5 -91q145 0 221.5 83.5 t76.5 205.5v461h143v-1182q0 -204 -107.5 -306.5t-335.5 -102.5q-178 0 -312 86v-2q-132 92 -132 273z" />
<glyph unicode="&#x10e8;" horiz-adv-x="1271" d="M91 1205v166q0 92 69 163t154 71q79 0 149 -40.5t108 -132.5q93 173 238 173q153 0 223.5 -81.5t70.5 -280.5v-802q0 -128 -64.5 -232.5t-170 -161t-229.5 -56.5q-83 0 -164.5 32.5t-149 90t-109 147.5t-41.5 196v145q0 194 134.5 327t329.5 133q226 0 323 -175l11 2v350 q0 71 -6.5 118t-19 76.5t-36 44.5t-50.5 20t-70 5q-78 0 -119.5 -48.5t-41.5 -133.5v-50h-107v50q0 90 -38 136t-128 46q-75 0 -116 -33t-41 -99v-166h-109zM316 461q0 -149 96.5 -254t226.5 -105q145 0 236 103t91 236v161q0 346 -325 346q-134 0 -229.5 -108.5 t-95.5 -259.5v-119z" />
<glyph unicode="&#x10e9;" horiz-adv-x="1189" d="M170 14v1318q0 121 100.5 197t243.5 76q165 0 269 -70t104 -187q0 -83 -55 -164l-105 19q35 68 35 143q0 143 -251 143q-210 0 -213 -173v-473q136 187 314 187q213 0 328 -115t115 -335v-71q0 -251 -214 -495h-173q248 226 248 502v64q0 73 -17.5 133t-53 105.5t-95 71 t-138.5 26.5q-129 -4 -219.5 -87.5t-94.5 -207.5v-607h-128z" />
<glyph unicode="&#x10ea;" horiz-adv-x="1310" d="M136 552v410q0 188 39.5 347.5t110.5 272.5h128q-137 -269 -137 -620v-410q0 -115 53.5 -219t144.5 -167.5t193 -63.5q152 0 259 105t107 261v34q0 287 -216 287h-156v111h156q94 0 155 58.5t61 166.5q0 41 -24 79t-60 66.5t-78.5 63.5t-79 67.5t-61.5 80t-26 100.5h116 q2 -53 47.5 -105t131.5 -97q175 -95 175 -250q0 -69 -19 -118.5t-57 -80t-81 -48.5t-104 -31v-13q148 -37 204.5 -116.5t56.5 -215.5v-39q0 -129 -65 -238t-182 -174t-260 -65q-156 0 -279 78.5t-188 205.5t-65 277z" />
<glyph unicode="&#x10eb;" horiz-adv-x="1189" d="M136 446v227q0 95 24 172t74 139t137.5 96t205.5 34q157 0 300 -164v655h144v-1178q0 -190 -122.5 -313t-321.5 -123q-200 0 -320.5 125t-120.5 330zM277 427q0 -158 75.5 -241.5t224.5 -83.5q136 0 218 87t82 245v230q0 135 -81.5 237t-218.5 102q-145 0 -222.5 -85.5 t-77.5 -253.5v-237z" />
<glyph unicode="&#x10ec;" horiz-adv-x="1241" d="M136 441v802q0 198 72.5 280t223.5 82q146 0 239 -173q79 173 256 173q85 0 154 -69.5t69 -164.5v-166h-104v166q0 65 -42.5 98.5t-116.5 33.5q-89 0 -129 -46.5t-40 -135.5v-50h-109v50q0 85 -41 133.5t-116 48.5q-46 0 -73.5 -5t-51.5 -19.5t-35.5 -44.5t-17.5 -76.5 t-6 -118.5v-350l12 -2q89 175 320 175q197 0 330.5 -133t133.5 -327v-145q0 -103 -40 -192t-105.5 -148t-148.5 -92.5t-170 -33.5q-120 0 -225.5 56.5t-172 161t-66.5 232.5zM277 441q0 -64 22.5 -124t63 -108t102.5 -77.5t135 -29.5q132 0 229.5 106t97.5 253v119 q0 151 -94 259.5t-235 108.5q-321 0 -321 -346v-161z" />
<glyph unicode="&#x10ed;" horiz-adv-x="1159" d="M136 416q0 96 53 193h122q-31 -86 -31 -198q0 -74 34 -143.5t104.5 -117.5t161.5 -48q143 0 221.5 75t78.5 214v36q0 118 -118 232q-116 113 -116 396v98h-178q-57 0 -84 -29.5t-27 -89.5q0 -70 32.5 -102t110.5 -32h43v-95h-68q-85 0 -157 45v-2q-68 45 -68 180 q0 56 19.5 99t52.5 67.5t71.5 36.5t81.5 12h171v260h-189v102h305v-362h204v-90h-204v-94q0 -281 131 -384q130 -103 130 -257v-27q0 -177 -120.5 -288.5t-322.5 -111.5q-126 0 -229 59.5t-159 156.5t-56 209z" />
<glyph unicode="&#x10ee;" horiz-adv-x="1189" d="M170 391v1214h139v-657q157 166 303 166q112 0 198.5 -34.5t139 -95t79 -137.5t26.5 -167v-289q0 -79 -29 -150.5t-83.5 -127.5t-140 -89t-190.5 -33q-112 0 -213.5 52.5t-165 145.5t-63.5 202zM309 427q0 -150 85 -237.5t218 -87.5q136 0 220 86.5t84 238.5v223 q0 159 -81.5 256t-222.5 97q-143 0 -223 -86.5t-80 -259.5v-230z" />
<glyph unicode="&#x10ef;" horiz-adv-x="1159" d="M139 398v95q0 111 50 228h127q-39 -156 -39 -228v-88q0 -135 87.5 -219t217.5 -84q141 0 219.5 75t78.5 225v84q0 172 -193 328q-186 151 -210 439l-338 43v113l338 -45l32 241h114l-32 -250l387 -43v-116l-382 52q24 -277 227 -423q200 -141 200 -339v-81 q0 -83 -30.5 -158t-86.5 -132t-140.5 -90.5t-185.5 -33.5q-115 0 -217 56.5t-163 151t-61 199.5z" />
<glyph unicode="&#x10f0;" horiz-adv-x="1155" d="M136 480h141q0 -92 13 -157t45.5 -117t92.5 -78t149 -26q144 0 222 59t78 171q0 273 -177 273h-179v109h179q75 0 111.5 34.5t36.5 128.5q0 74 -41.5 110t-138.5 36h-182v114h182q68 0 108 47t40 123q0 49 -4.5 70t-29 49t-80 38t-155 17.5t-256.5 7.5v105q258 0 402 -29 t202 -88.5t58 -162.5q0 -136 -162 -236q196 -69 196 -198q0 -151 -191 -230q225 -79 225 -291q0 -183 -119 -275.5t-325 -92.5q-438 0 -441 489z" />
<glyph unicode="&#x10f1;" horiz-adv-x="1155" d="M136 425v1180h128v-1187q2 -145 85.5 -230.5t230.5 -85.5q145 0 223.5 65t78.5 194q0 118 -43 176.5t-139 58.5h-113v104h113q89 0 135.5 44t46.5 122q0 63 -55 110t-161 47h-79v114h79q107 0 161.5 53t54.5 138q0 158 -295 161v116q202 0 318 -69.5t116 -205.5 q0 -177 -216 -243v-14q216 -38 216 -209q0 -175 -232 -221q232 -79 232 -282q0 -177 -116.5 -273.5t-327.5 -96.5q-200 0 -320.5 113t-120.5 321z" />
<glyph unicode="&#x10f2;" horiz-adv-x="1155" d="M136 52q220 0 371 103q-371 178 -371 482v443q0 104 15 186t44.5 139t68 96.5t90.5 62t106 32t120 9.5q104 0 181 -24.5t137.5 -82t91.5 -162.5t31 -256v-443q0 -307 -357 -482q121 -100 357 -103v-111q-206 0 -444 159q-257 -159 -441 -159v111zM277 634 q0 -254 303 -438q297 183 297 441v443q0 215 -73 312t-224 97q-147 0 -225 -104t-78 -348v-403z" />
<glyph unicode="&#x10f3;" horiz-adv-x="1155" d="M136 346v95q0 118 148 234l71 -77q-78 -75 -78 -177v-50q0 -47 17 -92.5t50.5 -86t94 -65.5t138.5 -25q49 0 91.5 9t81.5 31.5t66.5 57.5t44 89.5t16.5 124.5v104q0 152 -75.5 253.5t-174.5 101.5h-206v116h200q108 0 182 128t74 352h-568v-189h-141v302h853v-173 q0 -302 -280 -479q280 -90 280 -412v-104q0 -184 -120.5 -303.5t-323.5 -119.5q-116 0 -217.5 47.5t-162.5 129.5t-61 178z" />
<glyph unicode="&#x10f4;" horiz-adv-x="1155" d="M136 391q0 110 119 234l88 -79q-66 -91 -66 -160q0 -121 85 -202.5t218 -81.5q152 0 224.5 70.5t72.5 173.5v79q0 111 -51 163.5t-171 52.5h-68v116h68q113 0 167.5 105.5t54.5 326.5q-189 -146 -384 -146q-181 0 -269 74t-88 197q0 119 148.5 205t388.5 86v-116 q-218 0 -307 -39.5t-89 -142.5q0 -79 50 -126t157 -47q206 0 537 250q0 -614 -271 -679q271 -92 271 -282v-64q0 -174 -119 -271t-322 -97q-102 0 -187.5 33.5t-140.5 89.5t-85.5 127.5t-30.5 149.5z" />
<glyph unicode="&#x10f5;" horiz-adv-x="1241" d="M136 346q0 66 27 127.5t79.5 113t140 82.5t197.5 31h297v184h-297q-111 0 -198 28t-139.5 77t-79.5 110.5t-27 132.5q0 157 122 265t322 108q190 0 315.5 -102t125.5 -280v-227h129v-112h-129v-184h129v-118h-129v-236q0 -91 -37 -161t-100.5 -111.5t-140 -62 t-163.5 -20.5q-204 0 -324 99t-120 256zM277 339q0 -102 85 -169.5t218 -67.5q297 0 297 244v236h-297q-166 0 -234.5 -61.5t-68.5 -181.5zM277 1232q0 -108 75.5 -172t202.5 -64h322v227q0 129 -77 197.5t-220 68.5q-149 0 -226 -69.5t-77 -187.5z" />
<glyph unicode="&#x10f6;" horiz-adv-x="1644" d="M136 784v432q0 192 93 296t287 104q104 0 179 -46t130 -142q90 188 307 188q89 0 154.5 -18.5t117.5 -62t78.5 -122t26.5 -190.5v-439q0 -181 -107.5 -287t-267.5 -106q-136 0 -247 111v-172q0 -336 -430 -339v107q153 0 226.5 56t73.5 173v882q0 166 -54.5 228.5 t-186.5 62.5q-125 0 -182 -60.5t-57 -216.5v-439q0 -87 20.5 -147t59 -90t80 -42t95.5 -12v-102q-81 0 -151 23.5t-125.5 69.5t-87.5 123t-32 177zM887 784q0 -83 19.5 -140t56.5 -85.5t76.5 -40t92.5 -13.5q136 1 188.5 70.5t52.5 208.5v425q0 87 -18.5 146.5t-54 90 t-75.5 42.5t-93 12q-140 0 -192.5 -60.5t-52.5 -223.5v-432z" />
<glyph unicode="&#x10fb;" horiz-adv-x="901" d="M111 -57v177h175v-177h-175zM111 755v175h175v-175h-175zM616 346v175h175v-175h-175z" />
<glyph unicode="&#x2000;" horiz-adv-x="949" />
<glyph unicode="&#x2001;" horiz-adv-x="1898" />
<glyph unicode="&#x2002;" horiz-adv-x="949" />
<glyph unicode="&#x2003;" horiz-adv-x="1898" />
<glyph unicode="&#x2004;" horiz-adv-x="632" />
<glyph unicode="&#x2005;" horiz-adv-x="474" />
<glyph unicode="&#x2006;" horiz-adv-x="316" />
<glyph unicode="&#x2007;" horiz-adv-x="316" />
<glyph unicode="&#x2008;" horiz-adv-x="237" />
<glyph unicode="&#x2009;" horiz-adv-x="379" />
<glyph unicode="&#x200a;" horiz-adv-x="105" />
<glyph unicode="&#x2010;" horiz-adv-x="817" d="M50 423v150h759v-150h-759z" />
<glyph unicode="&#x2011;" horiz-adv-x="817" d="M50 423v150h759v-150h-759z" />
<glyph unicode="&#x2012;" horiz-adv-x="1370" d="M0 423v116h1437v-116h-1437z" />
<glyph unicode="&#x2013;" horiz-adv-x="1370" d="M7 407v109h1412v-109h-1412z" />
<glyph unicode="&#x2014;" horiz-adv-x="2461" d="M-5 430v109h2592v-109h-2592z" />
<glyph unicode="&#x2015;" horiz-adv-x="1386" d="M82 423v116h1293v-116h-1293z" />
<glyph unicode="&#x2018;" horiz-adv-x="546" d="M186 1150v166q0 229 164 328l23 -44q-132 -122 -132 -263h123v-187h-178z" />
<glyph unicode="&#x2019;" horiz-adv-x="546" d="M186 1191q130 127 130 271h-125v182h177v-166q0 -227 -159 -325z" />
<glyph unicode="&#x201a;" horiz-adv-x="546" d="M186 -277q69 34 95 96.5t35 185.5h-120v184h165v-164q0 -77 -10.5 -133.5t-32 -94t-48.5 -61t-65 -41.5l-19 21v7z" />
<glyph unicode="&#x201b;" horiz-adv-x="546" d="M205 1487v157h163v-182h-122q3 -220 131 -282l-16 -23q-38 19 -66 41t-44.5 50.5t-26.5 51t-13.5 60.5t-4.5 60t-1 67z" />
<glyph unicode="&#x201c;" horiz-adv-x="817" d="M157 1143v160q0 145 32 214.5t116 116.5l22 -29q-38 -38 -55 -91.5t-17 -140.5q0 -8 1 -25.5t1 -26.5h84v-178h-184zM518 1143v160q0 140 36 214.5t117 116.5l20 -29q-51 -41 -63 -97t-12 -187h89v-178h-187z" />
<glyph unicode="&#x201d;" horiz-adv-x="817" d="M136 1166q63 42 91 104.5t39 177.5h-127v189h166v-168q0 -104 -19 -170.5t-50.5 -99.5t-85.5 -56q-14 3 -14 23zM496 1166q62 41 92 107.5t37 174.5h-120v189h161v-168q0 -104 -19 -170.5t-50.5 -99.5t-85.5 -56q-1 3 -7.5 11t-7.5 12z" />
<glyph unicode="&#x201e;" horiz-adv-x="860" d="M166 5v184h175v-164q0 -79 -9.5 -134t-31.5 -91.5t-47 -58.5t-67 -46l-16 25q15 10 26 22.5t19 22.5t13.5 29t8.5 30t5.5 38t3 39.5t2 49.5t2.5 54h-84zM536 5v184h176v-164q0 -147 -39 -221t-116 -109l-18 25q23 14 38 31t23 32.5t12.5 43t6 47t3 61.5t3.5 70h-89z" />
<glyph unicode="&#x201f;" horiz-adv-x="817" d="M141 1291q0 10 2 32t2 34q0 19 -2 60t-2 63v161h166v-179h-121q0 -104 34.5 -178.5t97.5 -108.5l-20 -27q-10 6 -30.5 19t-31.5 20.5t-28.5 19t-27 20.5t-20 20.5t-15 22t-4.5 21.5zM498 1480v161h164v-179h-128q5 -112 36.5 -183t97.5 -104l-16 -27q-37 24 -64 48 t-43.5 52t-26.5 50.5t-14 57.5t-5 58t-1 66z" />
<glyph unicode="&#x2022;" horiz-adv-x="860" d="M168 771q0 111 86 190.5t201 79.5q118 0 204.5 -79.5t86.5 -190.5q0 -109 -86.5 -190t-204.5 -81q-114 0 -200.5 81.5t-86.5 189.5z" />
<glyph unicode="&#x2026;" horiz-adv-x="1552" d="M89 5v179h182v-179h-182zM682 5v179h186v-179h-186zM1280 5v179h184v-179h-184z" />
<glyph unicode="&#x2027;" horiz-adv-x="768" d="M307 384v180h184v-180h-184z" />
<glyph unicode="&#x202f;" horiz-adv-x="379" />
<glyph unicode="&#x2039;" horiz-adv-x="817" d="M152 511l387 517h109l-334 -517l332 -509h-107z" />
<glyph unicode="&#x203a;" horiz-adv-x="817" d="M170 2l335 516l-335 510h107l375 -505l-375 -521h-107z" />
<glyph unicode="&#x205f;" horiz-adv-x="474" />
<glyph unicode="&#x20ac;" horiz-adv-x="1370" d="M-9 582q14 55 14 64v6l4 16h143v225h-161q0 17 4.5 47.5t13.5 39.5l155 9q33 147 114 267t195 200.5t251 129t290 62.5q215 -15 364 -79q-1 -27 -16 -83t-16 -61q-180 89 -337 89q-252 0 -422.5 -136t-247.5 -389h891q-4 -15 -10 -32.5t-8.5 -30.5t-2.5 -33h-884v-225 h839l-7 -4l-9 -48l-7 -32q0 -11 -795 -11q28 -123 78.5 -218t112.5 -154t139.5 -96t152.5 -51.5t158 -14.5q194 0 341 75v-153q-159 -52 -319 -52q-193 16 -361 96t-295 227t-176 341z" />
<glyph unicode="&#x2116;" horiz-adv-x="2004" d="M64 261h100q5 -56 48 -95t86 -39q60 0 98 37.5t38 106.5v1177h-223v111h337l657 -1311v1118q0 105 71.5 183.5t164.5 78.5q95 0 171 -72t86 -176h-114q-4 49 -48.5 94t-94.5 45q-54 0 -91.5 -47.5t-37.5 -105.5v-1359h-112l-659 1323v-1059q0 -103 -67.5 -183.5 t-166.5 -80.5q-96 0 -164 75.5t-79 178.5zM1450 750q0 111 69 192t186 81q122 0 194 -82t72 -193q0 -120 -71 -198.5t-195 -78.5q-116 0 -185.5 80.5t-69.5 198.5zM1469 80v109h481v-109h-481zM1550 752q0 -70 43.5 -117.5t111.5 -47.5q79 0 121.5 44.5t42.5 118.5 q0 66 -46 114t-118 48q-66 0 -110.5 -49t-44.5 -111z" />
<glyph unicode="&#x2122;" horiz-adv-x="2461" d="M284 1571v79h794v-79h-353v-825h-88v825h-353zM1280 746v904h184l305 -877q22 55 77 228.5t79 226.5l12 34q17 52 65 197t62 191h180v-904h-75v800q-16 7 -34 7h-12q-12 0 -29 6q-25 -55 -111 -312t-96 -283q-39 -96 -68 -198l-7 -20h-87l-291 832q-38 -19 -63 -19h-14 v-813h-77z" />
<glyph unicode="&#x2219;" horiz-adv-x="614" d="M234 411v164h162v-164h-162z" />
<glyph unicode="&#x25fc;" horiz-adv-x="1056" d="M0 0v1057h1057v-1057h-1057z" />
</font>
</defs>
</svg>
